<svg xmlns="http://www.w3.org/2000/svg" width="876.208" height="862.974" viewBox="0 0 876.208 862.974">
  <g id="Group_174" data-name="Group 174" transform="translate(-4776.574 -1328)">
    <g id="Order_ride-amico_2_" data-name="Order ride-amico (2)" transform="translate(4776.574 1328)">
      <g id="freepik--Building--inject-108" transform="translate(36.501 197.589)">
        <path id="freepik--Buildings--inject-108" d="M812.421,256.2l-14.848,8.575V229.433l-7.424-4.278L775.3,233.712v6.633l-14.848,8.575V212.05L745.6,203.494l-14.848,8.557v3.793l-14.848,8.575V177.86l-14.848-8.575L686.21,177.86V153.682l-14.848-8.575L649.089,157.96v8.575l-14.848,8.575v7.029l-14.848-8.557V143.687s-14.579-8.143-14.848-8.143-14.848,8.143-14.848,8.143v12.835l-14.848-8.575L560,156.522v17.149l-14.848,8.557V138.689l-7.406-4.3-7.424,4.3v17.131l-7.424-4.278-14.848,8.575V147.048l-7.424-4.278-14.9,8.575v21.571l-7.424-4.278v-8.521l-14.848-8.575-14.794,8.575v-8.575L426.4,138.671l-14.848,8.575V130.1L396.7,121.54,381.854,130.1v23.836l-7.424,4.278V141.08l-14.848-8.575-14.848,8.575v25.706l-22.273-12.853V136.748l-14.848-8.575-14.866,8.575v25.724l-7.424-4.3-14.83,8.575v10.462l-14.866,8.611V169.86l-14.848-8.575L218.5,174.138v-13.77l-14.848-8.575-22.273,12.853v27.827L159.111,179.6,129.432,196.77V182.731l-14.848-8.575-14.848,8.575v25.778l-14.884,8.557v14.579L62.614,244.605v-9.33l-14.848-8.647L26.59,238.853V455.916H829.8V266.177Z" transform="translate(-26.59 -121.54)" fill="#ebebeb"/>
      </g>
      <g id="freepik--Floor--inject-108" transform="translate(0 357.011)">
        <path id="freepik--floor--inject-108-2" data-name="freepik--floor--inject-108" d="M134.608,284.35c-171.1,98.761-171.1,258.858,0,357.727s448.489,98.761,619.569,0,171.1-258.858,0-357.727S305.688,185.553,134.608,284.35Z" transform="translate(-6.285 -210.225)" fill="#fafafa"/>
      </g>
      <g id="freepik--Shadow--inject-108" transform="translate(653.804 440.645)">
        <ellipse id="Ellipse_39" data-name="Ellipse 39" cx="62.36" cy="36.779" rx="62.36" ry="36.779" fill="#ebebeb"/>
      </g>
      <g id="freepik--Tree--inject-108" transform="translate(25.338 240.597)">
        <g id="freepik--tree--inject-108-2" data-name="freepik--tree--inject-108">
          <g id="freepik--tree--inject-108-3" data-name="freepik--tree--inject-108">
            <path id="Path_12779" data-name="Path 12779" d="M65.82,274.184a8.988,8.988,0,0,1,4.854.881,48.321,48.321,0,0,1,7.927,5.609,15.981,15.981,0,0,0,8.79,3.793c3.254.108,6.741-1.905,7.334-5.087a4.979,4.979,0,0,1,.413-1.636,2.373,2.373,0,0,1,2.768-.719,16.667,16.667,0,0,1,2.678,1.546c3.272,1.941,7.388,1.492,11.145.953,3.146-.449,7.19-1.8,7.083-5.015,0-2.067-1.8-3.6-3.236-5.087s-2.571-3.9-1.276-5.519a3.882,3.882,0,0,1,1.8-1.115c3.919-1.276,8.718.431,12.026-2.031a6.9,6.9,0,0,0,1.8-8.287,10.534,10.534,0,0,0-7.065-5.393c-2.625-.683-5.968-.989-6.957-3.6-.863-2.211.863-4.62,2.822-5.986s4.3-2.319,5.645-4.278a6.741,6.741,0,0,0,.2-7.011,8.575,8.575,0,0,0-5.914-4.063,12.583,12.583,0,0,1-3.6-.773,2.391,2.391,0,0,1-1.33-3.02c.36-.647,1.1-.989,1.528-1.582a2.876,2.876,0,0,0-1.043-3.739A15.029,15.029,0,0,0,110.2,211.5c-2.84-.953-4.314-2.463-3.469-5.393s4.925-2.768,6.13-5.645c1.079-2.535-1.8-7.945-4.152-9.509a55.731,55.731,0,0,0-7.55-3.362c-2.5-1.186-4.925-3.254-5.123-6.022s1.905-5.2,3.6-7.424,3.2-5.393,1.69-7.784-4.656-2.427-7.19-3.254a11.81,11.81,0,0,1-7.19-6.436c-.7-1.6-1.025-3.344-1.8-4.872-2.571-4.746-8.988-6.831-14.039-6.238a5.663,5.663,0,0,0-4.764,3.236,7.443,7.443,0,0,0-1.8,3.29c-.377,2.283.827,5.213-1.33,6.957-3.29,2.66-8.323-.917-8.143,5.033a25.328,25.328,0,0,0,1.115,7.406c.881,2.5,2.678,3.6,1.186,6.382-1.923,3.6-3.182,3.6-7.065,3.6-2.8,0-5.141-.162-7.19,1.959-3.6,3.739-1.456,7.19,1.8,10.013,3.6,3.272,1.708,4.692,1.24,8.988-.234,2.049.234,2.678-1.6,4.027-3.451,2.571-5.393,1.708-4.4,6.723.881,4.584-.485,3-4.44,4.71-3.6,1.528-5.86,5.3-8.7,7.676-1.8,1.528-4.638,2.7-4.8,5.393-.342,5.105,6.022,3.973,8.988,5.2,4.925,2,3.451,8.467-.4,10.894s-10.031,3.6-10.354,9.366c-.252,4.476,2.3,5.483,5.788,6.975,2.768,1.2,2.427,1.546,2.409,4.872,0,6.687,2.247,8.575,8.844,7.5a16.321,16.321,0,0,1,6.364-.521c2.535.755,1.672,1.384,1.8,3.487.18,5.393,6.471,3.883,9.132,1.564C57.8,277.653,61.649,274.6,65.82,274.184Z" transform="translate(-20.341 -145.465)" fill="#fe0030"/>
            <path id="Path_12780" data-name="Path 12780" d="M65.82,274.184a8.988,8.988,0,0,1,4.854.881,48.321,48.321,0,0,1,7.927,5.609,15.981,15.981,0,0,0,8.79,3.793c3.254.108,6.741-1.905,7.334-5.087a4.979,4.979,0,0,1,.413-1.636,2.373,2.373,0,0,1,2.768-.719,16.667,16.667,0,0,1,2.678,1.546c3.272,1.941,7.388,1.492,11.145.953,3.146-.449,7.19-1.8,7.083-5.015,0-2.067-1.8-3.6-3.236-5.087s-2.571-3.9-1.276-5.519a3.882,3.882,0,0,1,1.8-1.115c3.919-1.276,8.718.431,12.026-2.031a6.9,6.9,0,0,0,1.8-8.287,10.534,10.534,0,0,0-7.065-5.393c-2.625-.683-5.968-.989-6.957-3.6-.863-2.211.863-4.62,2.822-5.986s4.3-2.319,5.645-4.278a6.741,6.741,0,0,0,.2-7.011,8.575,8.575,0,0,0-5.914-4.063,12.583,12.583,0,0,1-3.6-.773,2.391,2.391,0,0,1-1.33-3.02c.36-.647,1.1-.989,1.528-1.582a2.876,2.876,0,0,0-1.043-3.739A15.029,15.029,0,0,0,110.2,211.5c-2.84-.953-4.314-2.463-3.469-5.393s4.925-2.768,6.13-5.645c1.079-2.535-1.8-7.945-4.152-9.509a55.731,55.731,0,0,0-7.55-3.362c-2.5-1.186-4.925-3.254-5.123-6.022s1.905-5.2,3.6-7.424,3.2-5.393,1.69-7.784-4.656-2.427-7.19-3.254a11.81,11.81,0,0,1-7.19-6.436c-.7-1.6-1.025-3.344-1.8-4.872-2.571-4.746-8.988-6.831-14.039-6.238a5.663,5.663,0,0,0-4.764,3.236,7.443,7.443,0,0,0-1.8,3.29c-.377,2.283.827,5.213-1.33,6.957-3.29,2.66-8.323-.917-8.143,5.033a25.328,25.328,0,0,0,1.115,7.406c.881,2.5,2.678,3.6,1.186,6.382-1.923,3.6-3.182,3.6-7.065,3.6-2.8,0-5.141-.162-7.19,1.959-3.6,3.739-1.456,7.19,1.8,10.013,3.6,3.272,1.708,4.692,1.24,8.988-.234,2.049.234,2.678-1.6,4.027-3.451,2.571-5.393,1.708-4.4,6.723.881,4.584-.485,3-4.44,4.71-3.6,1.528-5.86,5.3-8.7,7.676-1.8,1.528-4.638,2.7-4.8,5.393-.342,5.105,6.022,3.973,8.988,5.2,4.925,2,3.451,8.467-.4,10.894s-10.031,3.6-10.354,9.366c-.252,4.476,2.3,5.483,5.788,6.975,2.768,1.2,2.427,1.546,2.409,4.872,0,6.687,2.247,8.575,8.844,7.5a16.321,16.321,0,0,1,6.364-.521c2.535.755,1.672,1.384,1.8,3.487.18,5.393,6.471,3.883,9.132,1.564C57.8,277.653,61.649,274.6,65.82,274.184Z" transform="translate(-20.341 -145.465)" fill="#fff" opacity="0.3"/>
            <path id="Path_12781" data-name="Path 12781" d="M116.157,244.015c3.02-.971,6.543-.2,9.509-.9a34.8,34.8,0,0,0-5.393-.845,15.082,15.082,0,0,0-11.5,4.566,10.337,10.337,0,0,1,2.319,6.9c-7.478,2.013-14.83-8-21.949-4.943.431,3.6,0,8.467-3.6,9.258a5.734,5.734,0,0,1-5.393-2.607c-1.276-1.69-2.067-3.721-3.362-5.393a11.469,11.469,0,0,0-15.19-2.211c-1.923,1.4-4.35,3.6-6.274,2.121s-.809-5.555-3.092-6.705c-1.528-.755-3.6.449-4.925-.683a3.433,3.433,0,0,1-.881-1.8c-.9-3.829-1.69-8.233.719-11.343,2.139-2.768,6.669-4.458,6.184-7.928-.413-2.948-4.17-3.847-7.19-4.188s-6.723-1.8-6.579-4.728,4.117-4.332,4.692-7.191c.252-1.222-.162-2.589.4-3.7.845-1.69,3.254-1.8,4.674-3,2.535-2.247.575-6.453,1.294-9.761.5-2.337,2.391-4.17,3.02-6.489,1.258-4.62-2.948-8.988-7.334-10.894a28.31,28.31,0,0,1-5.015-2.319L41.268,169a9.186,9.186,0,0,0,3.6,5.788c3.6,3.272,1.708,4.692,1.24,8.988-.234,2.049.234,2.678-1.6,4.027-3.451,2.571-5.393,1.708-4.4,6.723.881,4.584-.485,3-4.44,4.71-3.6,1.528-5.86,5.3-8.7,7.676-1.8,1.528-4.638,2.7-4.8,5.393-.342,5.105,6.022,3.973,8.988,5.2,4.925,2,3.451,8.467-.4,10.894s-10.031,3.6-10.354,9.366c-.252,4.476,2.3,5.483,5.788,6.975,2.768,1.2,2.427,1.546,2.409,4.872,0,6.687,2.247,8.575,8.844,7.5a16.323,16.323,0,0,1,6.364-.521c2.535.755,1.672,1.384,1.8,3.487.18,5.393,6.471,3.883,9.132,1.564,3.074-2.66,6.921-5.752,11.091-6.166a8.988,8.988,0,0,1,4.854.881,48.318,48.318,0,0,1,7.928,5.609,15.981,15.981,0,0,0,8.79,3.793c3.254.108,6.741-1.906,7.334-5.087a4.98,4.98,0,0,1,.413-1.636,2.373,2.373,0,0,1,2.768-.719,16.667,16.667,0,0,1,2.678,1.546c3.272,1.941,7.388,1.492,11.145.953,3.146-.449,7.19-1.8,7.083-5.015,0-2.067-1.8-3.6-3.236-5.087s-2.571-3.9-1.276-5.519a3.882,3.882,0,0,1,1.852-1.169Z" transform="translate(-20.38 -126.693)" fill="#fe0030" opacity="0.45"/>
            <path id="Path_12782" data-name="Path 12782" d="M40,208.913,57.976,244.6v-16.43l1.8-69.946,2.66,69.946v11.055l19.774-34.586-19.774,42.46V355.563a1.1,1.1,0,0,1-.665.917,3.6,3.6,0,0,1-3.164,0,1.1,1.1,0,0,1-.629-.917V253.692Z" transform="translate(-4.732 -135.292)" fill="#37474f"/>
          </g>
          <g id="freepik--Bush--inject-108" transform="translate(36.552 204.609)">
            <path id="freepik--bush--inject-108-2" data-name="freepik--bush--inject-108" d="M47,283.362c5.141.809,9.761-.611,10.552-6.184a49.328,49.328,0,0,0,0-13.806c-.234-1.654-.809-3.6-2.427-4.045a3.092,3.092,0,0,0-3.326,1.8,8.988,8.988,0,0,0-.557,4.045c-.827-1.8-2.031-3.883-4.009-3.937a3.685,3.685,0,0,0-3.29,3.721,10.642,10.642,0,0,0,1.69,5.159,5.087,5.087,0,0,0-4.027.629,3.6,3.6,0,0,0-.144,4.566,10.138,10.138,0,0,0,4.045,2.894,1.8,1.8,0,0,0-2.463,1.2,2.8,2.8,0,0,0,1.061,2.768A6.256,6.256,0,0,0,47,283.362Z" transform="translate(-40.714 -259.287)" fill="#455a64"/>
            <g id="freepik--bush--inject-108-3" data-name="freepik--bush--inject-108" transform="translate(7.56 5.457)">
              <path id="freepik--bush--inject-108-4" data-name="freepik--bush--inject-108" d="M52.579,283.134s10.013-5.77,12.314-7.19a9.852,9.852,0,0,0,2.678-2.517,7.029,7.029,0,0,0,1.492-3.182,1.69,1.69,0,0,0-.126-1.222c-.449-.647-1.492-.413-2.085.108a20.56,20.56,0,0,0-1.672,1.654,18.786,18.786,0,0,0,.234-4.26,1.8,1.8,0,0,0-.521-1.42,1.528,1.528,0,0,0-1.8,0,7.19,7.19,0,0,0-2.858,4.53,14.9,14.9,0,0,0-.162-5.393c-.431-1.941-2.66-2.714-3.415-.863a10.787,10.787,0,0,0-.647,3.11,12.926,12.926,0,0,0,.27,4.081,12.853,12.853,0,0,0-3.29-4.548,1.923,1.923,0,0,0-1.888-.647c-.773.288-.917,1.33-.827,2.157a11.972,11.972,0,0,0,1.672,4.961,10,10,0,0,0-4.153-1.618,1.2,1.2,0,0,0-1.312.413A1.654,1.654,0,0,0,46.772,273a10.264,10.264,0,0,0,3.4,3.128,10.517,10.517,0,0,0-4.027-.413,1.33,1.33,0,0,0-1.079.449c-.36.521,0,1.2.5,1.636a11.578,11.578,0,0,0,2.876,1.708,4.226,4.226,0,0,0-1.8.306,1.42,1.42,0,0,0-.845,1.456,1.8,1.8,0,0,0,1.312,1.151,8.755,8.755,0,0,0,5.465.719Z" transform="translate(-44.919 -262.323)" fill="#fe0030"/>
            </g>
          </g>
        </g>
      </g>
      <g id="freepik--Streetlight--inject-108" transform="translate(35.439 137.684)">
        <g id="freepik--city-lights--inject-108">
          <path id="Path_12783" data-name="Path 12783" d="M27.8,480.77a1.8,1.8,0,0,0,1.8-1.8V126.854a22.2,22.2,0,0,1,9.869-17.1L68.137,93.221c2.283-1.33,4.332-1.6,5.77-.773a5.9,5.9,0,0,1,2.229,5.393v34.317a1.87,1.87,0,0,0,3.739,0V97.8c0-4.027-1.456-7.083-4.1-8.611s-6.022-1.258-9.509.755L37.649,106.523A25.58,25.58,0,0,0,26,126.854V478.9a1.8,1.8,0,0,0,1.8,1.87Z" transform="translate(-25.999 -88.216)"/>
          <path id="Path_12784" data-name="Path 12784" d="M52.734,108.918a14.884,14.884,0,0,1,13.5,0,4.746,4.746,0,0,1,2.786,3.9v2.75a4.782,4.782,0,0,1-2.786,3.9,14.884,14.884,0,0,1-13.5,0,4.764,4.764,0,0,1-2.8-3.9v-2.75a4.746,4.746,0,0,1,2.8-3.9Z" transform="translate(-6.911 -72.994)" fill="#455a64"/>
          <path id="Path_12785" data-name="Path 12785" d="M52.734,110.441c-3.739,2.157-3.739,5.645,0,7.8a14.884,14.884,0,0,0,13.5,0c3.721-2.157,3.721-5.645,0-7.8a15.01,15.01,0,0,0-13.5,0Z" transform="translate(-6.911 -71.767)" fill="#37474f"/>
          <path id="Path_12786" data-name="Path 12786" d="M50.07,136.425H68.657V114.853a4.584,4.584,0,0,0-2.714-3.793,14.507,14.507,0,0,0-13.159,0,4.584,4.584,0,0,0-2.714,3.793h0Z" transform="translate(-6.8 -71.253)" fill="#fe0030"/>
          <path id="Path_12787" data-name="Path 12787" d="M50.07,136.425H68.657V114.853a4.584,4.584,0,0,0-2.714-3.793,14.507,14.507,0,0,0-13.159,0,4.584,4.584,0,0,0-2.714,3.793h0Z" transform="translate(-6.8 -71.253)" fill="#fff" opacity="0.7"/>
          <path id="Path_12788" data-name="Path 12788" d="M65.935,130.646c3.6-2.085,3.6-5.393,0-7.586a14.507,14.507,0,0,0-13.159,0c-3.6,2.1-3.6,5.5,0,7.586A14.507,14.507,0,0,0,65.935,130.646Z" transform="translate(-6.792 -61.682)" fill="#fe0030"/>
          <path id="Path_12789" data-name="Path 12789" d="M65.935,130.646c3.6-2.085,3.6-5.393,0-7.586a14.507,14.507,0,0,0-13.159,0c-3.6,2.1-3.6,5.5,0,7.586A14.507,14.507,0,0,0,65.935,130.646Z" transform="translate(-6.792 -61.682)" fill="#fff" opacity="0.5"/>
          <path id="Path_12790" data-name="Path 12790" d="M52.13,116.641a5.591,5.591,0,1,1,5.591,5.591,5.591,5.591,0,0,1-5.591-5.591Z" transform="translate(-5.157 -70.003)" fill="#fff" opacity="0.2"/>
          <path id="Path_12791" data-name="Path 12791" d="M50.07,124.582a11.4,11.4,0,0,0,18.587,0V114.8a4.584,4.584,0,0,0-2.714-3.793,14.507,14.507,0,0,0-13.159,0A4.584,4.584,0,0,0,50.07,114.8Z" transform="translate(-6.8 -71.293)" fill="#fff" opacity="0.2"/>
          <path id="Path_12792" data-name="Path 12792" d="M53.8,115.309a2.589,2.589,0,1,1,2.589,2.589A2.589,2.589,0,0,1,53.8,115.309Z" transform="translate(-3.825 -68.671)" fill="#fff" opacity="0.4"/>
          <path id="Path_12793" data-name="Path 12793" d="M52.734,122.568a14.884,14.884,0,0,1,13.5,0,4.746,4.746,0,0,1,2.786,3.865v2.75a4.746,4.746,0,0,1-2.786,3.937,14.884,14.884,0,0,1-13.5,0,4.746,4.746,0,0,1-2.8-3.9v-2.786A4.746,4.746,0,0,1,52.734,122.568Z" transform="translate(-6.911 -62.107)" fill="#455a64"/>
          <path id="Path_12794" data-name="Path 12794" d="M52.734,124.091c-3.739,2.157-3.739,5.645,0,7.8a14.884,14.884,0,0,0,13.5,0c3.721-2.157,3.721-5.645,0-7.8a15.01,15.01,0,0,0-13.5,0Z" transform="translate(-6.911 -60.879)" fill="#37474f"/>
        </g>
      </g>
      <g id="freepik--Clouds--inject-108" transform="translate(261.275 15.718)">
        <path id="freepik--Cloud--inject-108" d="M314.218,24.741a11.379,11.379,0,0,0,7.73.845c3.056-.467,6.525-.953,8.988.953a25.655,25.655,0,0,1,3.038,3.6c2.84,3.254,8.143.827,10.534,5.285.342.629.378,2.714,1.222,2.912s2.607-1.168,3.505-1.312a30.182,30.182,0,0,1,8.718.288,10.013,10.013,0,0,1,6.687,3.973c.773,1.061,1.474,2.409,2.8,2.7a4.189,4.189,0,0,0,2.265-.36,26.568,26.568,0,0,1,7.748-1.8,7.19,7.19,0,0,1,6.633,3.362c.162.324.342.719.7.791s.7-.216.971-.449a8,8,0,0,1,7.1-1.8A3.793,3.793,0,0,1,395,44.874c.755.9.773,2.211,1.51,3.128,1.294,1.564,3.847,1.079,5.842.521,2.661-.719,5.752-1.2,7.981.4.593.431,1.079.989,1.708,1.384a9.4,9.4,0,0,0,5.914.557c1.33-.126,16.862.342,16.646,1.654s-4.117,1.043-5,1.133c-1.294.108-2.553.4-3.865.431a11.074,11.074,0,0,0-3.937.306c-.809.36-1.33,1.043-2.211,1.33a10.1,10.1,0,0,1-6.22-.449,21.806,21.806,0,0,0-7.316-1.977,11.146,11.146,0,0,0-3.38,1.258,12.188,12.188,0,0,1-6.993.126c-1.33-.324-3.4-1.276-4.818-.9-.827.216-1.69,1.025-2.535,1.33a16.826,16.826,0,0,1-3.4.863c-4.134.593-8.215-1.672-12.134-2.625-5-1.222-7.766-.126-11.469,2.822a12.08,12.08,0,0,1-11.271,1.8,31.941,31.941,0,0,0-3.38-1.294,13.122,13.122,0,0,0-8.7.683,20.945,20.945,0,0,1-4.962,2.463c-5.9,1.384-11.559-5.393-17.347-3.739-2.5.773-4.422,2.7-6.813,3.6a11.541,11.541,0,0,1-7.46-.234c-3.362-1.079-6.6-2.912-10.121-2.93-2.463,0-4.872.863-7.334.9s-5.285-1.2-5.77-3.6a14.022,14.022,0,0,1-13.231,1.6,12.26,12.26,0,0,0-3.937-1.312c-2,0-3.721,1.258-5.645,1.8-4.674,1.348-9.366-2.049-14.2-2.409a36.492,36.492,0,0,0-8.772,1.15,11.109,11.109,0,0,1-8.521-1.33l9.959-2.714c4.027-1.115,8.251-2.211,12.332-1.33a12.332,12.332,0,0,0,5.537.755,13.1,13.1,0,0,0,3.254-1.708,11.882,11.882,0,0,1,12.422.467A11.235,11.235,0,0,1,282.9,41.836a10.785,10.785,0,0,1,6.184-7.514c2.984-1.366,6.507.431,7.047-3.344a11.289,11.289,0,0,1,5.015-7.82,21.356,21.356,0,0,1,5.932-2.625,4.854,4.854,0,0,1,4.206.827,26.474,26.474,0,0,1,1.941,2.5,5.594,5.594,0,0,0,.989.881Z" transform="translate(-94.01 -20.367)" fill="#f0f0f0"/>
        <path id="freepik--cloud--inject-108-2" data-name="freepik--cloud--inject-108" d="M215.859,56.738l.467.234c2.481,1.133,5.393.18,8.089.216a11,11,0,0,1,7.191,2.768c1.8,1.528,3.074,3.829,4.979,5.123a11.361,11.361,0,0,0,7.083,1.133,23.369,23.369,0,0,1,7.334.234,6.507,6.507,0,0,1,4.961,4.961,3.739,3.739,0,0,1,3.6-1.4c1.33,0,2.625.521,3.955.485a25.671,25.671,0,0,0,5.105-1.312c4.368-1.1,8.9.557,13.159,2.013s8.988,2.75,13.159.989a15.118,15.118,0,0,1-12.4,4.548c-4.692-.521-9.581-3.2-13.824-1.132-2.625,1.258-4.8,4.26-7.658,3.6-1.348-.288-2.427-1.384-3.775-1.708-3.038-.755-5.68,2.589-8.826,2.75s-5.7-3.056-8.826-4.063c-5.968-1.8-11.882,4.764-18.066,3.739-3.182-.521-5.788-3.02-8.988-3.4-2.643-.306-5.2.881-7.748,1.618-4.494,1.276-6.9-1.69-11.091-1.69-3.6,0-5.95,3.847-9.4,4.692-4.4,1.061-8.377-2.984-12.835-3.757-3.074-.521-6.184.539-9.294.755a17.617,17.617,0,0,1-10.57-2.589l18.641-3.7a12.853,12.853,0,0,0,3.469-1.025c1.079-.557,2-1.42,3.02-2.085a10.552,10.552,0,0,1,10.48-.521,8.988,8.988,0,0,1,8.988-8.79,6.543,6.543,0,0,0,2.84-.162c1.294-.575,1.8-2.121,2.535-3.308,2.085-3.272,7.928-4.782,10.912-2.121a23.1,23.1,0,0,0,3.344,2.912Z" transform="translate(-151.63 5.232)" fill="#f0f0f0"/>
      </g>
      <g id="freepik--Sun--inject-108" transform="translate(77.019 0)">
        <circle id="freepik--sun--inject-108-2" data-name="freepik--sun--inject-108" cx="27.18" cy="27.18" r="27.18" transform="translate(0 38.439) rotate(-45)" fill="#ffbda7"/>
      </g>
      <g id="freepik--Character--inject-108" transform="translate(651.867 211.592)">
        <g id="freepik--character--inject-108-2" data-name="freepik--character--inject-108">
          <g id="freepik--Bottom--inject-108" transform="translate(20.96 86.915)">
            <path id="Path_12795" data-name="Path 12795" d="M400.443,273.345c.4-8.988,1.546-41.345,1.546-41.345l17.149,10.786c-1.4,15.909-5.68,28.223-6.867,37.265,0,0-6.022,4.746-9.42,7.82a67.859,67.859,0,0,1-9.294,7.316c-2.535,1.564-7.909,2.157-8.718.521a128.687,128.687,0,0,0,12.134-12.116C400.156,279.655,400.246,277.767,400.443,273.345Z" transform="translate(-377.168 -134.353)" fill="#ffa8a7"/>
            <path id="Path_12796" data-name="Path 12796" d="M380.912,275.845a3.6,3.6,0,0,0,.971,3.6,15.387,15.387,0,0,0,11.379,1.546,19.432,19.432,0,0,0,10.354-5.231c2.049-2.049,4.925-4.943,7.388-5.716a15.1,15.1,0,0,0,5.393-2.786c.665-.773.288-3.973.288-3.973Z" transform="translate(-380.413 -109.403)" fill="#263238"/>
            <path id="Path_12797" data-name="Path 12797" d="M415.9,257.62a1.42,1.42,0,0,1,.557,1.15,13.969,13.969,0,0,0-.234,4.314,24.678,24.678,0,0,1,.521,5.968c-.162,1.672-3.865,3.146-6.2,4.278a31.53,31.53,0,0,0-7.406,5.645,22.919,22.919,0,0,1-11.289,5.393c-5.5.557-9.186-.611-10.462-2.5-1.582-2.319-.647-3.829,5.393-7.334,1.151-.647,5.123-3.6,6.489-4.548a23.638,23.638,0,0,0,8.593-11,2.481,2.481,0,0,1,.791-1.4,2.049,2.049,0,0,1,1.222-.216,10.207,10.207,0,0,1,3.128.647c.881.324,2.643.665,2.732,1.8a6.58,6.58,0,0,1-.288,1.474c0,.234-.216,1.043,0,1.151s.665-.449.809-.629c.629-.845.827-1.348,1.8-1.6s3.164-.5,3.739-1.438Z" transform="translate(-380.469 -114.133)" fill="#37474f"/>
            <path id="Path_12798" data-name="Path 12798" d="M385.925,267.232c8.017-.162,10.966,4.548,11.577,7.568a19.412,19.412,0,0,1-5.555,1.69c-5.5.557-9.42-.593-10.7-2.481C379.759,271.816,380.478,269.874,385.925,267.232Z" transform="translate(-380.572 -106.255)" fill="#fafafa"/>
            <path id="Path_12799" data-name="Path 12799" d="M393.538,268a.63.63,0,0,0,.252-.108.414.414,0,0,0,0-.557,9.455,9.455,0,0,0-7.46-2.211.395.395,0,1,0,.162.773,8.755,8.755,0,0,1,6.741,1.977A.413.413,0,0,0,393.538,268Z" transform="translate(-376.231 -107.998)" fill="#f0f0f0"/>
            <path id="Path_12800" data-name="Path 12800" d="M395.338,266.727a.629.629,0,0,0,.252-.108.413.413,0,0,0,0-.557,9.384,9.384,0,0,0-7.46-2.211.4.4,0,0,0-.306.467.377.377,0,0,0,.467.306,8.683,8.683,0,0,1,6.741,1.977A.413.413,0,0,0,395.338,266.727Z" transform="translate(-374.795 -109.021)" fill="#f0f0f0"/>
            <path id="Path_12801" data-name="Path 12801" d="M397.016,265.314a.467.467,0,0,0,.234-.108.4.4,0,0,0,0-.557,9.491,9.491,0,0,0-7.46-2.211.4.4,0,0,0-.306.467.377.377,0,0,0,.449.306,8.826,8.826,0,0,1,6.759,1.977A.4.4,0,0,0,397.016,265.314Z" transform="translate(-373.471 -110.143)" fill="#f0f0f0"/>
            <path id="Path_12802" data-name="Path 12802" d="M398.931,263.886a.342.342,0,0,0,.234-.09.4.4,0,0,0,0-.557,9.617,9.617,0,0,0-8.125-2.193.4.4,0,0,0-.305.467.378.378,0,0,0,.467.306,8.844,8.844,0,0,1,7.406,1.96.324.324,0,0,0,.324.108Z" transform="translate(-372.474 -111.322)" fill="#f0f0f0"/>
            <path id="Path_12803" data-name="Path 12803" d="M416.18,246.183l18.534-1.923c.647,11.343-.144,24.052.4,34.694.108,2,.4,15.424,0,19.594-.647,6.274-8.053,6.022-8.736,2.355s-2.894-19.289-3.056-20.906c-.485-6.813-3.469-17.976-6.13-30.056C417.043,249.347,416.288,246.759,416.18,246.183Z" transform="translate(-352.171 -124.574)" fill="#ffa8a7"/>
            <path id="Path_12804" data-name="Path 12804" d="M420.423,278.875a16.825,16.825,0,0,0,1.887,8.233,5.393,5.393,0,0,0,6.166,2.319c2.481-.575,5.662-2.193,6.435-5.393a19.77,19.77,0,0,0,.18-8.665Z" transform="translate(-348.792 -99.76)" fill="#263238"/>
            <path id="Path_12805" data-name="Path 12805" d="M432.137,262.83c1.007.108.324,4.89.809,9.8.521,5.249,2.031,7.46,2.517,11.774.539,4.925.234,7.19-1.546,10.049s-7.946,5.734-10.786,1.4c-2.391-3.505-2.409-7.37-2.085-12.26a58.481,58.481,0,0,0-.647-12.116c-.485-4.224-.971-7.352,0-7.748,0,.557.126,1.474.18,2s.324,2.319.647,2.193a8.994,8.994,0,0,0,0-1.384,1.69,1.69,0,0,1,.306-1.186,1.96,1.96,0,0,1,1.132-.485,44.934,44.934,0,0,1,4.854-.665,11.5,11.5,0,0,1,3.7.288.863.863,0,0,1,.539.521,1.475,1.475,0,0,1,0,.557,3.149,3.149,0,0,0,.108,1.007c0,.144.126.324.27.306s.162-.18.18-.306v-2.876A8.411,8.411,0,0,0,432.137,262.83Z" transform="translate(-349.253 -109.762)" fill="#37474f"/>
            <path id="Path_12806" data-name="Path 12806" d="M435.214,277.128a11.99,11.99,0,0,1-1.51,7.424c-1.8,2.948-8.413,5.734-11.343,1.42a14.058,14.058,0,0,1-1.941-7.19C422.29,275.511,432.428,274.27,435.214,277.128Z" transform="translate(-348.789 -99.631)" fill="#fafafa"/>
            <path id="Path_12807" data-name="Path 12807" d="M422.106,275.2h.126a14.9,14.9,0,0,1,8.79-.719.379.379,0,0,0,.18-.737,15.208,15.208,0,0,0-9.276.773.378.378,0,0,0,.18.719Z" transform="translate(-347.761 -101.37)" fill="#f0f0f0"/>
            <path id="Path_12808" data-name="Path 12808" d="M430.947,272.492a.378.378,0,0,0,.108-.737,13,13,0,0,0-9.276.683.382.382,0,0,0,.341.683,12.3,12.3,0,0,1,8.683-.647Z" transform="translate(-347.866 -103.084)" fill="#f0f0f0"/>
            <path id="Path_12809" data-name="Path 12809" d="M430.924,270.634a.342.342,0,0,0,.324-.234.378.378,0,0,0-.216-.485,11.649,11.649,0,0,0-9.455.647.375.375,0,1,0,.378.647,11.181,11.181,0,0,1,8.808-.593A.251.251,0,0,0,430.924,270.634Z" transform="translate(-348.022 -104.677)" fill="#f0f0f0"/>
            <path id="Path_12810" data-name="Path 12810" d="M430.826,268.428a.342.342,0,0,0,.324-.234.378.378,0,0,0-.216-.485,12.242,12.242,0,0,0-9.527.755.37.37,0,1,0,.36.647,11.756,11.756,0,0,1,8.988-.7Z" transform="translate(-348.157 -106.372)" fill="#ebebeb"/>
            <path id="Path_12811" data-name="Path 12811" d="M440.1,177.68c5.051,7.424,12.673,17.635,12.314,36.582-.593,29.823-.755,49.021-.755,49.021,1.222,3.272,3.469,5.591,3.452,20.565,0,11.954-.126,40.86-.126,40.86s-8.988,3.6-16.017.5c-2.607-9.743-7.3-40.644-9.33-53.821-1.959-12.817-4.908-37.5-4.908-37.5l-8.269,28.079a69.965,69.965,0,0,1-.773,18.8c-1.438,7.892-7.963,39.08-7.963,39.08s-8.9,2.427-14.848-2.175c0,0,2.211-49.9,2.589-59.537.593-14.471.467-38.667,2.966-58.423.971-7.55,3.6-15.3,4.926-20.367Z" transform="translate(-370.756 -177.68)" fill="#37474f"/>
            <path id="Path_12812" data-name="Path 12812" d="M404.752,246.6a117.835,117.835,0,0,1-1.312,27.108c-1.043,7.28-3.721,25.868-4.89,32.357h.809c1.168-6.507,3.829-25.023,4.872-32.357a118.919,118.919,0,0,0,1.312-27.234c-.342-6.4,3.811-37.139,6.112-50.693l-.737-.126C408.527,209.376,404.374,240.205,404.752,246.6Z" transform="translate(-366.233 -163.339)" fill="#455a64"/>
            <path id="Path_12813" data-name="Path 12813" d="M432.5,266.716c-.18-.593-.359-1.115-.485-1.636-.557-2.031-1.043-16.7-.773-27.162.18-7.352.377-14.956.342-21.122,0-15.639-3.6-28.115-11.073-39.026h-.881c4.728,6.813,8.413,18.767,10.139,27.2-3.6-.449-8.611-4.854-10.606-10.013-2.157-5.645-5.105-14.075-5.141-14.165l-.683.306s2.966,8.5,5.141,14.129c1.8,4.782,3.6,8,9.4,10.049a5.77,5.77,0,0,0,2.283.467,61.286,61.286,0,0,1,.683,11.019c0,6.148-.162,13.752-.359,21.1-.27,10.983.216,25.167.809,27.378.144.521.306,1.061.5,1.654,1.061,3.308,2.373,10.786,2.624,26.8.126,8.449.881,29.427.9,35.162l.737-.234c0-5.7-.773-26.587-.9-34.928C434.893,277.556,433.563,270.042,432.5,266.716Z" transform="translate(-354.436 -177.608)" fill="#455a64"/>
            <path id="Path_12814" data-name="Path 12814" d="M434.748,258.86c-2.912,1.8-12.493,2.768-16.358,1.222l1.007,4.6a20.278,20.278,0,0,0,7.91.9c5.393-.2,7.334-2.463,7.334-2.463Z" transform="translate(-350.408 -112.929)" fill="#455a64"/>
            <path id="Path_12815" data-name="Path 12815" d="M408.991,255.658c-3.218,1.043-12.583-.593-15.945-2.948l-.126,5.123a12.853,12.853,0,0,0,7.37,2.876c5.393.719,7.478-.7,7.478-.7Z" transform="translate(-370.724 -117.834)" fill="#455a64"/>
            <path id="Path_12816" data-name="Path 12816" d="M419.6,222.32l-3.272-23.783s-12.583-1.8-17.005-6.238c0,0,5.591,8.251,14.093,9.743l3.218,17.527-5.2,30.56Z" transform="translate(-365.619 -166.019)" fill="#263238"/>
          </g>
          <g id="freepik--Top--inject-108">
            <g id="freepik--Arm--inject-108" transform="translate(14.341 43.538)">
              <path id="Path_12817" data-name="Path 12817" d="M424.815,153.55c-4.494,0-8.988,1.69-13.159,8.3-3.6,5.5-8.125,12.673-11.631,18.965l-21.14-4.674-2,10.57s18.7,7.658,24.2,8.88c4.117.917,5.393,1.4,10.013-3.757s11.289-14.381,11.289-14.381Z" transform="translate(-376.89 -153.55)" fill="#fe0030"/>
              <path id="Path_12818" data-name="Path 12818" d="M424.815,153.55c-4.494,0-8.988,1.69-13.159,8.3-3.6,5.5-8.125,12.673-11.631,18.965l-21.14-4.674-2,10.57s18.7,7.658,24.2,8.88c4.117.917,5.393,1.4,10.013-3.757s11.289-14.381,11.289-14.381Z" transform="translate(-376.89 -153.55)" opacity="0.2"/>
            </g>
            <g id="freepik--Tablet--inject-108" transform="translate(0 55.678)">
              <path id="Path_12819" data-name="Path 12819" d="M369.154,161.556h0l.935-.989h0a1.115,1.115,0,0,1,1.043-.216l12.224,2.085a4.062,4.062,0,0,1,2.714,2.085l10.211,22.2a1.1,1.1,0,0,1,0,1.2h0l-.971,1.007h0a1.2,1.2,0,0,1-1.061.234l-12.224-2.1a4.062,4.062,0,0,1-2.714-2.085l-10.246-22.255a1.007,1.007,0,0,1,.09-1.168Z" transform="translate(-368.907 -160.303)" fill="#455a64"/>
              <path id="Path_12820" data-name="Path 12820" d="M377.13,162.7a3.972,3.972,0,0,1,1.438,1.564l10.228,22.2a1.114,1.114,0,0,1,0,1.168l.9-.953h0a1.061,1.061,0,0,0,0-1.187l-10.228-22.2a3.685,3.685,0,0,0-1.33-1.474Z" transform="translate(-362.358 -159.094)" fill="#263238"/>
              <path id="Path_12821" data-name="Path 12821" d="M395.351,187.252l-10.228-22.2a4.1,4.1,0,0,0-2.714-2.085l-12.242-2.1c-1.043-.18-1.528.467-1.1,1.438L379.3,184.5a4.1,4.1,0,0,0,2.714,2.085l12.224,2.1C395.3,188.87,395.782,188.223,395.351,187.252Z" transform="translate(-368.913 -159.881)" fill="#37474f"/>
              <path id="Path_12822" data-name="Path 12822" d="M380.315,168.037l-1.924-4.152a.755.755,0,0,0-.5-.4l-2.121-.36c-.2,0-.288.09-.216.27l1.924,4.153a.755.755,0,0,0,.5.4l2.121.36C380.3,168.289,380.387,168.289,380.315,168.037Z" transform="translate(-363.637 -158.049)" fill="#455a64"/>
              <path id="Path_12823" data-name="Path 12823" d="M377.968,164.561a1.905,1.905,0,0,0-1.294-.971c-.5,0-.755.216-.539.647a1.905,1.905,0,0,0,1.294.971C377.932,165.28,378.184,164.992,377.968,164.561Z" transform="translate(-363.214 -157.682)" fill="#263238"/>
              <path id="Path_12824" data-name="Path 12824" d="M378.488,165.731a1.905,1.905,0,0,0-1.276-.971c-.521,0-.773.216-.557.647a1.8,1.8,0,0,0,1.294.953C378.452,166.45,378.7,166.162,378.488,165.731Z" transform="translate(-362.799 -156.749)" fill="#263238"/>
              <path id="Path_12825" data-name="Path 12825" d="M370.851,169.857c-1.222-1.24-1.168-1.438-.737-2.247a4.4,4.4,0,0,1,3.272-2.427,9.079,9.079,0,0,1,3.146-.2c.7.234.378,1.654-1.151,2.283-2.445.989-2.3,1.672-2.3,1.672a28.906,28.906,0,0,1,3.164-1.115,23.862,23.862,0,0,1,3.793,0c1.079,0,1.528,1.33-.2,2.1h2.013c1.4,0,1.977.647,1.043,1.672a1.96,1.96,0,0,1-1.15.665s1.456-.252,1.564.234c.324,1.366-.521,1.8-3.308,3.236s-2.894,2.481-2.265,3.829c0,0-1.24-.467-2.355-.989-.827-.378-1.546-.845-1.4-2.049,0,0-1.6.306-1.8-.683a5.392,5.392,0,0,1,0-2.175,1.8,1.8,0,0,1-1.151-1.492,2.9,2.9,0,0,1,.288-1.8Z" transform="translate(-368.177 -156.614)" fill="#ffa8a7"/>
              <path id="Path_12826" data-name="Path 12826" d="M378.168,167.672a10.261,10.261,0,0,0-1.8.108,5.482,5.482,0,0,0-1.618.827,20.688,20.688,0,0,0-2.822,2.175,19.986,19.986,0,0,0,3.092-1.8,9.821,9.821,0,0,1,1.456-.881A10.62,10.62,0,0,0,378.168,167.672Z" transform="translate(-366.506 -154.429)" fill="#f28f8f"/>
              <path id="Path_12827" data-name="Path 12827" d="M379.459,169.011a3.919,3.919,0,0,0-1.923.27,9.749,9.749,0,0,0-1.8.881A17.512,17.512,0,0,0,372.7,172.5a37.407,37.407,0,0,0,3.308-1.888A9.906,9.906,0,0,1,379.459,169.011Z" transform="translate(-365.891 -153.378)" fill="#f28f8f"/>
            </g>
            <path id="Path_12828" data-name="Path 12828" d="M417.588,153.39s17.653.773,22.075,2.732c2.031.9,3.146,5.105,2.391,17.689-.378,6.2-.719,11.721-.575,16.916a59.212,59.212,0,0,0,1.438,11.127c-10.678,8.323-41.669,5.393-45.983-.2,0,0,1.258-11.091,1.654-16.826,0,0-3.236-5.393-3-8.988.306-5.285,1.384-7.191,6.148-13.123a99.768,99.768,0,0,1,8.161-9.114Z" transform="translate(-347.647 -110.139)" fill="#fe0030"/>
            <path id="freepik--Hair--inject-108" d="M402.251,149.1c-9.438-10.5,1.654-19.774,15.244-19.774h0c9.995,0,18.911,8.341,19.4,17.419.629,11.936-.791,15.19-6.274,19.522-7.874,6.238-28.169,7.19-32.357-3.6C401.765,161.957,402.772,156.762,402.251,149.1Z" transform="translate(-345.504 -129.33)" fill="#37474f"/>
            <path id="Path_12829" data-name="Path 12829" d="M425.492,166.9l.467-9.4a4.081,4.081,0,0,0,5.033-1.061c2.768-2.948,3.02-6.112,1.456-8.125s-5.393-1.348-7.029,1.42c-2.445.611-3.469-2.876-1.654-6.471,0,0-5.015-2.84-4.135-8.071-4.692-1.222-12.26-.737-16.358-.306-1.33,2.067-3.326,5-3.02,15.514.27,8.988,2.912,11.073,5.393,12.583a12.349,12.349,0,0,0,6.31,1.15l-.108,3.11h0c0,1.294-.36,1.348-1.492,1.42l-1.69.126s-4.17,5,3.937,5.95c12.1,1.438,18.587-4.638,18.587-4.638l-2.822-.4C426.265,169.385,425.69,168.648,425.492,166.9Z" transform="translate(-343.939 -125.271)" fill="#ffa8a7"/>
            <path id="Path_12830" data-name="Path 12830" d="M410.516,145.54l-4.746,1.6a2.445,2.445,0,0,0,3.128,1.654,2.589,2.589,0,0,0,1.618-3.254Z" transform="translate(-339.514 -116.401)" fill="#b16668"/>
            <path id="Path_12831" data-name="Path 12831" d="M409.454,146.16a2.75,2.75,0,0,0-2.714,2.175,2.283,2.283,0,0,0,1.384,0,2.535,2.535,0,0,0,1.708-2.1Z" transform="translate(-338.74 -115.906)" fill="#f28f8f"/>
            <path id="Path_12832" data-name="Path 12832" d="M408.641,140l-.665,8.053-4.566-1.33A15.873,15.873,0,0,1,408.641,140Z" transform="translate(-341.396 -120.819)" fill="#f28f8f"/>
            <path id="Path_12833" data-name="Path 12833" d="M401.348,141.126l3.182-1.474a1.654,1.654,0,0,0-2.265-.9,1.8,1.8,0,0,0-.917,2.373Z" transform="translate(-343.164 -121.945)" fill="#263238"/>
            <path id="Path_12834" data-name="Path 12834" d="M411.284,141l-3.164-1.654A1.785,1.785,0,1,1,411.284,141Z" transform="translate(-337.64 -122.107)" fill="#263238"/>
            <path id="Path_12835" data-name="Path 12835" d="M404.695,141.723a1.492,1.492,0,0,1-1.312,1.618,1.438,1.438,0,0,1-1.6-1.276,1.492,1.492,0,0,1,1.33-1.618,1.384,1.384,0,0,1,1.582,1.276Z" transform="translate(-342.699 -120.475)" fill="#263238"/>
            <path id="Path_12836" data-name="Path 12836" d="M410.614,141.832a1.528,1.528,0,0,1-1.33,1.618,1.42,1.42,0,0,1-1.582-1.276,1.51,1.51,0,0,1,1.312-1.618,1.42,1.42,0,0,1,1.6,1.276Z" transform="translate(-337.977 -120.386)" fill="#263238"/>
            <path id="Path_12837" data-name="Path 12837" d="M406.78,153.53a25.168,25.168,0,0,0,9.168-2.625,7.515,7.515,0,0,0,2.912-3.236,6.723,6.723,0,0,1-2.625,4.925c-2.912,2.247-9.545,3.4-9.545,3.4Z" transform="translate(-338.78 -114.702)" fill="#f28f8f"/>
            <path id="Path_12838" data-name="Path 12838" d="M401.538,133.911a8.593,8.593,0,0,0,5.824,10.7,8.125,8.125,0,0,1-.971-5.645s5.663,10.786,17.689,7.856l-2.067-11.037C416.44,132.077,407.866,129.4,401.538,133.911Z" transform="translate(-343.174 -127.565)" fill="#37474f"/>
            <g id="freepik--arm--inject-108-2" data-name="freepik--arm--inject-108" transform="translate(80.721 45.174)">
              <path id="Path_12839" data-name="Path 12839" d="M413.84,191.587c0-.306.342-.378.611-.431.575-.126,1.133-.234,1.69-.4a18.285,18.285,0,0,0,2.553-.989,27.928,27.928,0,0,1,3.6-1.079c.593-.144,1.456-.27,2.049-.377,1.133-.2,1.672-.791,2.858-2.445a37.73,37.73,0,0,0,2.121-4.278c3.218-.144,8.179,3.505,8.557,7.1,0,0-.971,1.079-2.157,2.337a11.02,11.02,0,0,0-2.553,4.494,16.7,16.7,0,0,1-3.775,6.435,11.2,11.2,0,0,1-9.186-7.19c.27-.36.881-1.222-.09-1.276h-.827c-.647,0-1.294.108-1.923.108a4.261,4.261,0,0,1-2.409-.431C414.38,192.827,413.679,192.324,413.84,191.587Z" transform="translate(-413.817 -132.822)" fill="#ffa8a7"/>
              <path id="Path_12840" data-name="Path 12840" d="M426.512,196.047a11.954,11.954,0,0,1-7.784-4.566A11.592,11.592,0,0,1,417.38,189a11.361,11.361,0,0,0,2.84,3.4,6.273,6.273,0,0,0,5.842,1.8,7.064,7.064,0,0,0,3.6-2.93,14.939,14.939,0,0,1-3.146,4.782Z" transform="translate(-410.975 -126.91)" fill="#f28f8f"/>
              <path id="Path_12841" data-name="Path 12841" d="M419.537,154.46c7.011.971,8.754,1.564,10.912,4.153s3.02,5.069,7.191,11.864c2.265,3.6,6.31,10.552,9.527,16.52,2.265,4.171,1.672,5.573-2.391,12.26a141.717,141.717,0,0,1-11.738,16.071c-1.977.09-7.784-4.26-9.276-7.334l8.305-14.561-9.995-15.693a24.357,24.357,0,0,1-4.476-10.264C416.8,163.592,417.308,156.959,419.537,154.46Z" transform="translate(-411.083 -154.46)" fill="#fe0030"/>
              <path id="Path_12842" data-name="Path 12842" d="M419.537,154.46c7.011.971,8.754,1.564,10.912,4.153s3.02,5.069,7.191,11.864c2.265,3.6,6.31,10.552,9.527,16.52,2.265,4.171,1.672,5.573-2.391,12.26a141.717,141.717,0,0,1-11.738,16.071c-1.977.09-7.784-4.26-9.276-7.334l8.305-14.561-9.995-15.693a24.357,24.357,0,0,1-4.476-10.264C416.8,163.592,417.308,156.959,419.537,154.46Z" transform="translate(-411.083 -154.46)" opacity="0.2"/>
            </g>
          </g>
        </g>
      </g>
      <g id="freepik--Device--inject-108" transform="translate(125.483 317.717)">
        <g id="freepik--Mobile--inject-108">
          <path id="freepik--shadow--inject-108-2" data-name="freepik--shadow--inject-108" d="M321.056,222.69,85.172,358.68c-5.9,3.4-5.9,8.988,0,12.314L532.4,629.2c8.988,5.213,23.8,5.2,32.807,0L795.3,496.54c6.633-3.847,6.651-10.121,0-13.967L345.234,222.69a26.767,26.767,0,0,0-24.178,0Z" transform="translate(-72.373 -163.29)" opacity="0.15"/>
          <g id="freepik--mobile--inject-108-2" data-name="freepik--mobile--inject-108">
            <path id="Path_12843" data-name="Path 12843" d="M352.079,192.741l450.88,260.332c11.595,6.687,11.469,14.381,11.469,21.122s-3.074,16.286-11.469,21.14L567.686,630.966c-8.395,4.854-22,4.854-30.416,0L86.39,370.652C78,365.8,76.09,357.673,76.09,350.878S78,333.262,86.39,328.426L321.663,192.741A28.618,28.618,0,0,1,352.079,192.741Z" transform="translate(-76.09 -188.366)" fill="#37474f"/>
            <path id="Path_12844" data-name="Path 12844" d="M340.97,202.074,99.6,341.264,552.478,602.638v31.944a31.08,31.08,0,0,1-15.208-3.6L86.39,370.637c-8.395-4.854-10.3-12.979-10.3-19.774S78,333.247,86.39,328.411L321.663,192.726a29.086,29.086,0,0,1,19.306-4.063Z" transform="translate(-76.09 -188.351)" fill="#263238"/>
            <path id="Path_12845" data-name="Path 12845" d="M321.056,193.32,85.172,329.328c-5.9,3.4-5.9,8.988,0,12.314L532.4,599.852c8.988,5.2,23.8,5.2,32.807,0L795.3,467.17c6.633-3.829,6.651-10.121,0-13.95L345.234,193.32a26.964,26.964,0,0,0-24.178,0Z" transform="translate(-72.373 -186.698)" fill="#455a64"/>
            <path id="Path_12846" data-name="Path 12846" d="M350.261,202.72,757.495,437.849c6.6,3.811,6.615,10.031,0,13.824L534.589,580.239a26.389,26.389,0,0,1-23.944,0L100.212,343.276c-5.393-3.092-6.418-7.766-3.038-11.451l.827-.845a14.056,14.056,0,0,1,2.211-1.528L318.821,203.421l1.186-.7C328.294,197.9,341.92,197.921,350.261,202.72Z" transform="translate(-60.826 -179.793)" fill="#fafafa"/>
            <path id="Path_12847" data-name="Path 12847" d="M146.645,244.17l30.47-17.581a7.01,7.01,0,0,1,6.382-.126c1.69.989,1.6,2.642-.216,3.685l-30.524,17.617a7.011,7.011,0,0,1-6.382.126C144.668,246.831,144.848,245.177,146.645,244.17Z" transform="translate(-20.974 -158.542)" fill="#263238"/>
            <path id="Path_12848" data-name="Path 12848" d="M171.6,221.158a8.269,8.269,0,0,1,7.406,0,2.265,2.265,0,0,1,0,4.3,8.269,8.269,0,0,1-7.406,0,2.265,2.265,0,0,1,0-4.3Z" transform="translate(-1.146 -162.908)" fill="#263238"/>
            <path id="Path_12849" data-name="Path 12849" d="M177.156,329.869a12.835,12.835,0,0,1,5.986,9.941,3.7,3.7,0,0,1-1.654,3.487c-.719.413-3.433,2.031-4.188,2.445a4.386,4.386,0,0,1-4.332-.485l-36.725-21.212a12.853,12.853,0,0,1-6-9.941,3.793,3.793,0,0,1,1.528-3.416c.737-.467,3.6-2.1,4.314-2.535a4.44,4.44,0,0,1,4.332.5Z" transform="translate(-32.914 -93.097)" fill="#455a64"/>
            <path id="Path_12850" data-name="Path 12850" d="M172.959,331.215,136.234,310c-3.308-1.905-6-.557-6,3.038a12.853,12.853,0,0,0,6,9.941l36.725,21.212c3.308,1.905,6,.557,6-3.038A12.853,12.853,0,0,0,172.959,331.215Z" transform="translate(-32.907 -92.035)" fill="#37474f"/>
            <path id="Path_12851" data-name="Path 12851" d="M141.385,309.205a12.871,12.871,0,0,1,5.986,9.959,3.7,3.7,0,0,1-1.654,3.487c-.719.4-3.433,2.031-4.188,2.445a4.422,4.422,0,0,1-4.332-.485L100.471,303.4a12.889,12.889,0,0,1-6-9.959A3.811,3.811,0,0,1,96,290.025c.737-.467,3.6-2.1,4.314-2.517a4.422,4.422,0,0,1,4.332.485Z" transform="translate(-61.445 -109.572)" fill="#455a64"/>
            <path id="Path_12852" data-name="Path 12852" d="M137.189,310.542l-36.725-21.158c-3.326-1.905-6-.557-6,3.02a12.835,12.835,0,0,0,6,9.959l36.725,21.176c3.308,1.905,6,.539,6-3.038a12.853,12.853,0,0,0-6-9.959Z" transform="translate(-61.438 -108.482)" fill="#37474f"/>
          </g>
        </g>
        <g id="freepik--Map--inject-108" transform="translate(46.922 26.064)">
          <path id="Path_12853" data-name="Path 12853" d="M262.213,321.427c-3.146-1.8-9.869-.881-15.01,2.085s-6.777,6.849-3.6,8.665,9.869.881,15.01-2.085S265.43,323.243,262.213,321.427ZM388.226,281.61l-27.432,35.179,81.828-1.8,27.414-35.161ZM290.921,286.3l-22.255,28.96a8.09,8.09,0,0,1,4.926,3.415l74.709-1.618,25.544-32.573Zm189.272-.5L457.47,314.92l49.273-13.878ZM517.1,306.956l-68.31,19.2-77.3,99.1c26.713-7.766,48.015-9.617,69.065-5.285l84.039-108.648ZM269.888,328.8c-3.6,4.4-7.083,5.788-14.992,8.377l25.167,48.536,109.4-2.463,44.8-58.027Zm4.674,67.824-27.27,23.369,59.142,34.155a297.569,297.569,0,0,1,45.282-22.4l29.175-37.426ZM349.541,210.3l-50.783,65.937,159.018-3.469ZM533.456,316.466,450.424,421.644l5.932,1.007,130.525-75.356ZM240.048,339.727a12.423,12.423,0,0,1-4.081-1.654L163.11,371.365,238.466,414.8l27.288-23.369Zm190.764,89.881c-32.843-5.573-74.979,4.872-116.845,28.942l40.213,23.189,87.113-50.333ZM340.751,205.247c-6.723-3.829-19.163-2.948-27.7,1.977l-1.222.719L189.535,278.608l98.2-2.121,54.288-70.5ZM171.109,289.178l-62.917,36.33a17.973,17.973,0,0,0-2.319,1.546c-.324.27-.611.539-.917.827-3.811,3.6-3.739,7.8.575,10.282l48.248,27.863,78.071-35.755c1.186-3.2,4.027-6.507,10.175-10.085a46.272,46.272,0,0,1,16.089-5.393l21.7-28.241Z" transform="translate(-102.192 -202.865)" fill="#fe0030"/>
          <path id="Path_12854" data-name="Path 12854" d="M262.213,321.427c-3.146-1.8-9.869-.881-15.01,2.085s-6.777,6.849-3.6,8.665,9.869.881,15.01-2.085S265.43,323.243,262.213,321.427ZM388.226,281.61l-27.432,35.179,81.828-1.8,27.414-35.161ZM290.921,286.3l-22.255,28.96a8.09,8.09,0,0,1,4.926,3.415l74.709-1.618,25.544-32.573Zm189.272-.5L457.47,314.92l49.273-13.878ZM517.1,306.956l-68.31,19.2-77.3,99.1c26.713-7.766,48.015-9.617,69.065-5.285l84.039-108.648ZM269.888,328.8c-3.6,4.4-7.083,5.788-14.992,8.377l25.167,48.536,109.4-2.463,44.8-58.027Zm4.674,67.824-27.27,23.369,59.142,34.155a297.569,297.569,0,0,1,45.282-22.4l29.175-37.426ZM349.541,210.3l-50.783,65.937,159.018-3.469ZM533.456,316.466,450.424,421.644l5.932,1.007,130.525-75.356ZM240.048,339.727a12.423,12.423,0,0,1-4.081-1.654L163.11,371.365,238.466,414.8l27.288-23.369Zm190.764,89.881c-32.843-5.573-74.979,4.872-116.845,28.942l40.213,23.189,87.113-50.333ZM340.751,205.247c-6.723-3.829-19.163-2.948-27.7,1.977l-1.222.719L189.535,278.608l98.2-2.121,54.288-70.5ZM171.109,289.178l-62.917,36.33a17.973,17.973,0,0,0-2.319,1.546c-.324.27-.611.539-.917.827-3.811,3.6-3.739,7.8.575,10.282l48.248,27.863,78.071-35.755c1.186-3.2,4.027-6.507,10.175-10.085a46.272,46.272,0,0,1,16.089-5.393l21.7-28.241Z" transform="translate(-102.192 -202.865)" fill="#fff" opacity="0.6"/>
        </g>
        <g id="freepik--Options--inject-108" transform="translate(333.763 243.345)">
          <path id="Path_12855" data-name="Path 12855" d="M307.445,382.879a7.748,7.748,0,0,1-3.793-.917,2.624,2.624,0,0,1,0-4.925,8.269,8.269,0,0,1,7.568,0h0a2.625,2.625,0,0,1,0,4.925,7.712,7.712,0,0,1-3.775.917Zm0-5.806a6.687,6.687,0,0,0-3.326.791A2.013,2.013,0,0,0,302.9,379.5a2.067,2.067,0,0,0,1.222,1.636,7.316,7.316,0,0,0,6.633,0,2.067,2.067,0,0,0,1.222-1.636,2.013,2.013,0,0,0-1.222-1.636,6.668,6.668,0,0,0-3.308-.791Z" transform="translate(-229.714 -281.954)" fill="#455a64"/>
          <path id="Path_12856" data-name="Path 12856" d="M322.785,374a7.747,7.747,0,0,1-3.793-.917,2.625,2.625,0,0,1,0-4.926,8.305,8.305,0,0,1,7.586,0h0a2.625,2.625,0,0,1,0,4.926,7.748,7.748,0,0,1-3.793.917Zm0-5.806a6.812,6.812,0,0,0-3.308.791,1.7,1.7,0,0,0,0,3.272,7.19,7.19,0,0,0,6.615,0,1.7,1.7,0,0,0,0-3.272,6.814,6.814,0,0,0-3.308-.719Z" transform="translate(-217.478 -289.037)" fill="#455a64"/>
          <path id="Path_12857" data-name="Path 12857" d="M309.3,381.236a.469.469,0,0,1-.234-.881l15.549-8.988a.475.475,0,1,1,.467.827l-15.549,8.988a.558.558,0,0,1-.234.054Z" transform="translate(-224.219 -285.794)" fill="#455a64"/>
          <path id="Path_12858" data-name="Path 12858" d="M305.075,394.036a3.037,3.037,0,0,1-1.474-.359l-1.42-.827a1.223,1.223,0,0,1-.647-1.582.509.509,0,0,0-.252-.359l-1.654-.953a4.063,4.063,0,0,1-2.031-2.373l-1.348-5.285a.378.378,0,0,0-.2-.18,1.114,1.114,0,0,1,0-2.031l16.808-9.689a14.8,14.8,0,0,1,7.191-1.8h6.328a8.124,8.124,0,0,0,3.434-.755c.9-.45,2.283-1.133,4.422-2.157a11.613,11.613,0,0,1,12.08.593c1.636.935,2.427,1.8,2.427,2.84s-.539,1.51-1.6,2.121a.467.467,0,1,1-.467-.809c.5-.306,1.115-.773,1.115-1.312s-.683-1.294-1.941-2.031a10.786,10.786,0,0,0-11.2-.557l-4.4,2.157a8.773,8.773,0,0,1-3.847.845h-6.328a13.769,13.769,0,0,0-6.8,1.654l-16.79,9.725c-.144.09-.2.162-.2.2s0,.09.2.18a1.33,1.33,0,0,1,.629.755l1.348,5.3a3.128,3.128,0,0,0,1.6,1.8l1.636.953a1.222,1.222,0,0,1,.647,1.582.509.509,0,0,0,.252.36l1.438.827a2.228,2.228,0,0,0,1.348.2l2.876-.413a.449.449,0,0,1,.539.4.485.485,0,0,1-.4.539l-2.876.413a2.391,2.391,0,0,1-.449.036Z" transform="translate(-234.93 -291.404)" fill="#455a64"/>
          <path id="Path_12859" data-name="Path 12859" d="M308.624,373.734l-4.224-2.445,1.8-1.061a12.925,12.925,0,0,1,11-1.474h0Z" transform="translate(-227.748 -288.323)" fill="#455a64"/>
          <path id="Path_12860" data-name="Path 12860" d="M301.309,378.2l8.719-5.033-4.171-2.445-5.069,2.93c-2.013,1.168-1.8,3.2.575,4.548Z" transform="translate(-231.722 -286.262)" fill="#455a64"/>
          <path id="Path_12861" data-name="Path 12861" d="M290.6,373.165a7.567,7.567,0,0,1-3.793-.935,2.625,2.625,0,0,1,0-4.908,8.161,8.161,0,0,1,7.568,0,2.625,2.625,0,0,1,0,4.908,7.531,7.531,0,0,1-3.775.935Zm0-5.824a6.7,6.7,0,0,0-3.326.809,2.014,2.014,0,0,0-1.222,1.636,2.067,2.067,0,0,0,1.222,1.636,7.37,7.37,0,0,0,6.633,0,2.067,2.067,0,0,0,1.222-1.636,2.014,2.014,0,0,0-1.222-1.636h0a6.687,6.687,0,0,0-3.308-.809Z" transform="translate(-243.127 -289.713)" fill="#455a64"/>
          <path id="Path_12862" data-name="Path 12862" d="M309.744,362.1a7.784,7.784,0,0,1-3.793-.917,2.624,2.624,0,0,1,0-4.907,8.2,8.2,0,0,1,7.586,0,2.625,2.625,0,0,1,0,4.908,7.749,7.749,0,0,1-3.793.917Zm0-5.806a6.813,6.813,0,0,0-3.308.791,2.085,2.085,0,0,0-1.24,1.636,2.031,2.031,0,0,0,1.24,1.636,7.19,7.19,0,0,0,6.615,0,2,2,0,0,0,1.24-1.636,2.049,2.049,0,0,0-1.24-1.636h0a6.76,6.76,0,0,0-3.308-.791Z" transform="translate(-227.861 -298.527)" fill="#455a64"/>
          <path id="Path_12863" data-name="Path 12863" d="M292.424,373.264a.448.448,0,0,1-.216-.845l22.452-12.961a.468.468,0,0,1,.647.18.485.485,0,0,1-.18.647l-22.452,12.961a.557.557,0,0,1-.252.018Z" transform="translate(-237.667 -295.295)" fill="#455a64"/>
          <path id="Path_12864" data-name="Path 12864" d="M289.167,385.624a5.9,5.9,0,0,1-2.822-.683l-1.42-.827a2.229,2.229,0,0,1-1.294-2.031.916.916,0,0,0-.18-.539l-4.548-6.705a1.052,1.052,0,0,1,0-.144s0-.126-.18-.18a1.222,1.222,0,0,1-.683-1.025,1.2,1.2,0,0,1,.683-1.007l18.911-10.929a19.468,19.468,0,0,1,9.887-2.984c1.42-.162,2.607-.216,3.6-.252a10.537,10.537,0,0,0,2.319-.18,21.892,21.892,0,0,0,5.285-1.672l.378-.162,6.2-2.535a13.788,13.788,0,0,1,11.595.36c1.636.935,2.427,1.8,2.427,2.84s-.539,1.51-1.6,2.121a.468.468,0,0,1-.647-.162.485.485,0,0,1,.18-.647c.5-.306,1.115-.773,1.115-1.312s-.683-1.294-1.941-2.013a12.889,12.889,0,0,0-10.786-.306l-6.328,2.463-.36.144a22.543,22.543,0,0,1-5.519,1.8,22.123,22.123,0,0,1-2.409.18c-.989,0-2.121.108-3.6.252a18.5,18.5,0,0,0-9.509,2.876l-18.929,10.93c-.162.09-.2.162-.2.18s0,.108.2.2a1.276,1.276,0,0,1,.611.665l4.512,6.813a1.8,1.8,0,0,1,.324,1.133,1.4,1.4,0,0,0,.827,1.132l1.438.827a5,5,0,0,0,3.182.485l1.8-.27a.467.467,0,0,1,.539.413.485.485,0,0,1-.4.539l-1.8.27q-.432-.006-.863-.054Z" transform="translate(-248.773 -300.663)" fill="#455a64"/>
          <path id="Path_12865" data-name="Path 12865" d="M293.92,363.6l-4.53-2.607,2.8-1.618a13.9,13.9,0,0,1,11.774-1.582h0Z" transform="translate(-239.72 -297.097)" fill="#455a64"/>
          <path id="Path_12866" data-name="Path 12866" d="M284.4,362.56l4.512,2.607-4.171,2.409C282.366,366.191,282.258,364.016,284.4,362.56Z" transform="translate(-244.919 -292.77)" fill="#455a64"/>
          <path id="Path_12867" data-name="Path 12867" d="M295.7,362.587l-6.777,3.9L284.43,363.9l6.777-3.919Z" transform="translate(-243.676 -294.828)" fill="#455a64"/>
          <path id="Path_12868" data-name="Path 12868" d="M274.607,363.149a7.675,7.675,0,0,1-3.775-.917,2.625,2.625,0,0,1,0-4.926,8.269,8.269,0,0,1,7.568,0,2.625,2.625,0,0,1,0,4.926,7.749,7.749,0,0,1-3.793.917Zm0-5.806a6.615,6.615,0,0,0-3.308.791,1.7,1.7,0,0,0,0,3.272,7.19,7.19,0,0,0,6.615,0,1.7,1.7,0,0,0,0-3.272h0a6.579,6.579,0,0,0-3.308-.791Z" transform="translate(-255.892 -297.691)" fill="#fe0030"/>
          <path id="Path_12869" data-name="Path 12869" d="M293.656,352.134a7.676,7.676,0,0,1-3.775-.917,2.625,2.625,0,0,1,0-4.908,8.215,8.215,0,0,1,7.568,0h0a2.625,2.625,0,0,1,0,4.925A7.747,7.747,0,0,1,293.656,352.134Zm0-5.806a6.869,6.869,0,0,0-3.308.791,1.8,1.8,0,0,0,0,3.29,7.424,7.424,0,0,0,6.633,0,1.8,1.8,0,0,0,0-3.29,6.885,6.885,0,0,0-3.326-.791Z" transform="translate(-240.679 -306.468)" fill="#fe0030"/>
          <path id="Path_12870" data-name="Path 12870" d="M276.444,363.224a.449.449,0,0,1-.413-.2.467.467,0,0,1,.162-.647L298.5,349.509a.467.467,0,0,1,.647.18.485.485,0,0,1-.18.647l-22.291,12.871a.593.593,0,0,1-.234.018Z" transform="translate(-250.431 -303.232)" fill="#fe0030"/>
          <path id="Path_12871" data-name="Path 12871" d="M277.034,353.542l-4.224-2.427,1.8-1.079a23.98,23.98,0,0,1,13.015-2.642h0Z" transform="translate(-252.944 -304.928)" fill="#fe0030"/>
          <path id="Path_12872" data-name="Path 12872" d="M269.6,357.808l8.736-5.033-4.224-2.445-5.069,3c-2.031,1.168-1.8,3.2.557,4.548Z" transform="translate(-257.05 -302.525)" fill="#fe0030"/>
          <path id="Path_12873" data-name="Path 12873" d="M271.989,375.439h-1.672a6.328,6.328,0,0,1-3.11-.755,2.553,2.553,0,0,1-1.492-2.049,1.6,1.6,0,0,0-.953-1.222l-1.636-.953a2.139,2.139,0,0,1,0-3.991,7.191,7.191,0,0,0,2.5-2.229l2.535-3.883a11.271,11.271,0,0,1,3.865-3.469l7.334-4.224a33.165,33.165,0,0,1,11.469-3.829l5.393-.827a34.156,34.156,0,0,0,8.287-2.337l4.961-2.139a16.035,16.035,0,0,1,13.374.557l.773.431a2.013,2.013,0,0,1,0,3.757l-1.51.881a.485.485,0,1,1-.485-.827l1.528-.881a1.33,1.33,0,0,0,.809-1.043,1.348,1.348,0,0,0-.809-1.061l-.773-.449a15.262,15.262,0,0,0-12.583-.5l-4.961,2.157a35.308,35.308,0,0,1-8.485,2.373l-5.393.827a32.194,32.194,0,0,0-11.145,3.721l-7.334,4.224a10.587,10.587,0,0,0-3.6,3.164l-2.535,3.883a8.143,8.143,0,0,1-2.822,2.535c-.575.342-.9.755-.9,1.169a1.456,1.456,0,0,0,.9,1.168l1.654.953a2.481,2.481,0,0,1,1.42,2.031,1.636,1.636,0,0,0,.953,1.222,5.393,5.393,0,0,0,2.7.647h1.672a5.393,5.393,0,0,0,2.643-.611.467.467,0,0,1,.665.162.449.449,0,0,1-.144.629,6.435,6.435,0,0,1-3.092.791Z" transform="translate(-261.759 -308.903)" fill="#fe0030"/>
          <path id="Path_12874" data-name="Path 12874" d="M295.471,334.925l2.373.467,2-.863-.036,1.438,2.049.827-2.391.431-.737,1.384-1.438-1.186-2.517.018,1.51-1.15Z" transform="translate(-235.429 -315.128)" fill="#fe0030"/>
          <path id="Path_12875" data-name="Path 12875" d="M299.543,332.565l2.373.467,2-.863-.036,1.438,2.049.845-2.391.431-.737,1.366-1.456-1.168-2.481.018,1.492-1.168Z" transform="translate(-232.166 -317.01)" fill="#fe0030"/>
          <path id="Path_12876" data-name="Path 12876" d="M303.631,330.215l2.355.467L308,329.82l-.036,1.438,2.049.827-2.391.431-.737,1.384-1.456-1.186-2.5.018,1.492-1.151Z" transform="translate(-228.92 -318.884)" fill="#fe0030"/>
          <path id="Path_12877" data-name="Path 12877" d="M307.711,327.855l2.355.467,2.013-.863-.036,1.438,2.031.845-2.373.413-.755,1.384-1.438-1.169-2.5.018,1.492-1.168Z" transform="translate(-225.666 -320.767)" fill="#fe0030"/>
          <path id="Path_12878" data-name="Path 12878" d="M311.791,325.505l2.355.467,2.013-.863-.036,1.438,2.031.827-2.373.431-.755,1.384L313.589,328l-2.5.018,1.492-1.151Z" transform="translate(-222.411 -322.641)" fill="#fe0030"/>
          <path id="Path_12879" data-name="Path 12879" d="M301.555,350.492a1.4,1.4,0,0,1-.7-2.607l37.876-21.805a1.4,1.4,0,0,1,1.905.521,1.384,1.384,0,0,1-.5,1.905l-37.876,21.877A1.454,1.454,0,0,1,301.555,350.492Z" transform="translate(-231.122 -322.012)" fill="#455a64"/>
          <path id="Path_12880" data-name="Path 12880" d="M305.233,356.262a.935.935,0,0,1-.467-1.8l53.03-30.6a.917.917,0,0,1,1.276.342.935.935,0,0,1-.341,1.276l-53.066,30.649a.862.862,0,0,1-.431.126Z" transform="translate(-227.933 -323.737)" fill="#e0e0e0"/>
          <path id="Path_12881" data-name="Path 12881" d="M312.361,344.665l2.355.467,2-.863-.018,1.438,2.031.845-2.391.413-.737,1.384-1.438-1.186-2.5.036,1.492-1.168Z" transform="translate(-221.957 -307.359)" fill="#fe0030"/>
          <path id="Path_12882" data-name="Path 12882" d="M316.423,342.315l2.373.467,2-.863-.018,1.438,2.031.827-2.391.431L319.677,346l-1.438-1.186-2.5.018,1.492-1.15Z" transform="translate(-218.702 -309.233)" fill="#fe0030"/>
          <path id="Path_12883" data-name="Path 12883" d="M320.5,339.955l2.373.467,2-.863L324.853,341l2.031.845-2.391.413-.737,1.384-1.438-1.168-2.5.018,1.492-1.168Z" transform="translate(-215.448 -311.116)" fill="#fe0030"/>
          <path id="Path_12884" data-name="Path 12884" d="M324.583,337.613l2.373.467,2-.881-.036,1.456,2.049.827-2.391.431-.737,1.384-1.438-1.186-2.5.018,1.492-1.15Z" transform="translate(-212.194 -312.998)" fill="#fe0030"/>
          <path id="Path_12885" data-name="Path 12885" d="M328.663,335.245l2.373.467,2-.863L333,336.288l2.049.845-2.391.413-.737,1.384-1.438-1.186-2.5.036,1.492-1.169Z" transform="translate(-208.94 -314.872)" fill="#e0e0e0"/>
          <path id="Path_12886" data-name="Path 12886" d="M318.44,360.28a1.366,1.366,0,0,1-1.2-.7,1.4,1.4,0,0,1,.5-1.923L355.615,335.8a1.4,1.4,0,0,1,1.923.5,1.438,1.438,0,0,1-.521,1.923l-37.876,21.859a1.42,1.42,0,0,1-.7.2Z" transform="translate(-217.664 -314.272)" fill="#455a64"/>
          <path id="Path_12887" data-name="Path 12887" d="M322.113,366.022a.935.935,0,0,1-.467-1.8l53.1-30.649a.917.917,0,0,1,1.258.342.935.935,0,0,1-.324,1.276l-53.1,30.7a.862.862,0,0,1-.467.126Z" transform="translate(-214.469 -315.988)" fill="#e0e0e0"/>
          <path id="Path_12888" data-name="Path 12888" d="M329.241,354.423l2.355.449,2.013-.863-.036,1.456,2.031.827-2.391.431-.737,1.366-1.438-1.168-2.5.018,1.492-1.151Z" transform="translate(-208.493 -299.59)" fill="#fe0030"/>
          <path id="Path_12889" data-name="Path 12889" d="M333.3,352.055l2.373.467,2-.863-.018,1.438,2.031.827-2.391.431-.737,1.384-1.438-1.186-2.5.018,1.492-1.15Z" transform="translate(-205.239 -301.464)" fill="#fe0030"/>
          <path id="Path_12890" data-name="Path 12890" d="M337.383,349.7l2.373.467,2-.863-.018,1.456,2.031.827-2.391.431-.737,1.366-1.438-1.168-2.5.018,1.492-1.151Z" transform="translate(-201.984 -303.347)" fill="#fe0030"/>
          <path id="Path_12891" data-name="Path 12891" d="M341.463,347.346l2.373.467,2-.863-.036,1.438,2.049.827-2.391.431-.737,1.384-1.438-1.186-2.5.018,1.492-1.15Z" transform="translate(-198.73 -305.221)" fill="#e0e0e0"/>
          <path id="Path_12892" data-name="Path 12892" d="M345.543,344.985l2.373.467,2-.863-.036,1.438,2.049.845-2.391.431-.737,1.366-1.438-1.168-2.5.018,1.492-1.168Z" transform="translate(-195.476 -307.103)" fill="#e0e0e0"/>
          <path id="Path_12893" data-name="Path 12893" d="M335.32,370.02a1.366,1.366,0,0,1-1.2-.7,1.4,1.4,0,0,1,.5-1.923L372.5,345.536a1.4,1.4,0,0,1,1.923.5,1.42,1.42,0,0,1-.521,1.924l-37.876,21.931A1.42,1.42,0,0,1,335.32,370.02Z" transform="translate(-204.2 -306.504)" fill="#455a64"/>
          <path id="Path_12894" data-name="Path 12894" d="M339.031,375.763a.926.926,0,1,1-.449-1.8l53.084-30.578a.935.935,0,1,1,.935,1.6l-53.1,30.649a.862.862,0,0,1-.467.126Z" transform="translate(-201.044 -308.22)" fill="#e0e0e0"/>
        </g>
        <g id="freepik--Button--inject-108" transform="translate(455.338 247.016)">
          <g id="freepik--button--inject-108-2" data-name="freepik--button--inject-108">
            <path id="Path_12913" data-name="Path 12913" d="M330.6,424.258,368.964,446.4a3.6,3.6,0,0,0,3.29,0l150.03-86.645a1.007,1.007,0,0,0,0-1.905l-38.361-22.147a3.6,3.6,0,0,0-3.29,0L330.6,422.352a1.007,1.007,0,0,0,0,1.905Z" transform="translate(-328.967 -318.177)" opacity="0.15"/>
            <path id="Path_12914" data-name="Path 12914" d="M522.688,360.727l-150.03,86.645a3.6,3.6,0,0,1-3.29,0l-38.361-22.147a3.6,3.6,0,0,1-1.618-2.84l.09-6.741a3.6,3.6,0,0,1,1.654-2.858l150.03-86.609a3.6,3.6,0,0,1,3.29,0l38.379,22.111a3.6,3.6,0,0,1,1.618,2.858l-.09,6.741A3.6,3.6,0,0,1,522.688,360.727Z" transform="translate(-329.39 -325.778)" fill="#fe0030"/>
            <path id="Path_12915" data-name="Path 12915" d="M330.641,414.692,369,436.838a3.6,3.6,0,0,0,3.29,0l150.048-86.645a1.007,1.007,0,0,0,0-1.905L483.96,326.177a3.6,3.6,0,0,0-3.29,0l-150.03,86.645a1.007,1.007,0,0,0,0,1.869Z" transform="translate(-328.897 -325.778)" fill="#fe0030"/>
            <path id="Path_12916" data-name="Path 12916" d="M331.1,374.18a3.793,3.793,0,0,0-1.672,2.858v6.741a3.6,3.6,0,0,0,1.618,2.84l38.361,22.165a3.4,3.4,0,0,0,1.8.378V398.61a3.273,3.273,0,0,1-1.636-.378L331.21,376.085C330.275,375.654,330.131,374.737,331.1,374.18Z" transform="translate(-329.358 -287.172)" opacity="0.2"/>
            <path id="Path_12917" data-name="Path 12917" d="M504.545,338.4c.647.521.557,1.258-.252,1.8l-150.03,86.645a3.253,3.253,0,0,1-1.654.377v10.552a3.039,3.039,0,0,0,1.582-.4l150.03-86.645a3.6,3.6,0,0,0,1.672-2.84V341.15a3.6,3.6,0,0,0-1.348-2.75Z" transform="translate(-310.869 -315.711)" fill="#fff" opacity="0.4"/>
          </g>
        </g>
      </g>
      <g id="freepik--Pin--inject-108" transform="translate(175.223 150.093)">
        <g id="freepik--pin--inject-108-2" data-name="freepik--pin--inject-108">
          <path id="Path_12927" data-name="Path 12927" d="M123.228,208.156v-7.55a95.489,95.489,0,0,1,4.872-28.978h0c7.91-24.5,24.556-47.889,43.826-59,12.26-7.083,23.369-7.963,32.016-3.7L187.08,99.22a24.843,24.843,0,0,0-14.021-4.1,21.354,21.354,0,0,0-2.373.108,19.255,19.255,0,0,0-2.445.288,16.984,16.984,0,0,0-2.5.467c-.845.18-1.8.413-2.571.665a48.768,48.768,0,0,0-5.285,1.959c-.9.4-1.8.845-2.714,1.276s-1.8.971-2.75,1.492c-26.964,15.531-48.662,54.935-48.662,88.084v7.532c0,33.094,44.491,69.047,44.491,69.047l17.976,10.175a6.239,6.239,0,0,1-.917-.665C152.08,263.217,123.228,233.664,123.228,208.156Zm53.12-69.568a18.41,18.41,0,0,1,.324,2.535V142a13.808,13.808,0,0,1,0,1.51c0,15.5-10.894,34.389-24.358,42.154-.485.27-.971.539-1.456.773s-.971.467-1.438.683l-1.4.575h-.144c2.1,11.864,11.99,16.017,23.944,9.15,13.428-7.766,24.322-26.641,24.322-42.172.108-13.662-8.467-20.223-19.792-16.053Z" transform="translate(-103.76 -95.119)" fill="#fe0030"/>
          <path id="Path_12928" data-name="Path 12928" d="M123.228,208.156v-7.55a95.489,95.489,0,0,1,4.872-28.978h0c7.91-24.5,24.556-47.889,43.826-59,12.26-7.083,23.369-7.963,32.016-3.7L187.08,99.22a24.843,24.843,0,0,0-14.021-4.1,21.354,21.354,0,0,0-2.373.108,19.255,19.255,0,0,0-2.445.288,16.984,16.984,0,0,0-2.5.467c-.845.18-1.8.413-2.571.665a48.768,48.768,0,0,0-5.285,1.959c-.9.4-1.8.845-2.714,1.276s-1.8.971-2.75,1.492c-26.964,15.531-48.662,54.935-48.662,88.084v7.532c0,33.094,44.491,69.047,44.491,69.047l17.976,10.175a6.239,6.239,0,0,1-.917-.665C152.08,263.217,123.228,233.664,123.228,208.156Z" transform="translate(-103.76 -95.119)" opacity="0.2"/>
          <path id="Path_12929" data-name="Path 12929" d="M156.774,119.872a18.408,18.408,0,0,1,.324,2.535v.881a13.808,13.808,0,0,1,0,1.51c0,15.5-10.894,34.389-24.358,42.154-.485.27-.971.539-1.456.773s-.971.467-1.438.683l-1.4.575H128.3c2.1,11.864,11.99,16.017,23.944,9.15,13.428-7.766,24.322-26.641,24.322-42.172C176.674,122.262,168.1,115.7,156.774,119.872Z" transform="translate(-84.186 -76.367)" opacity="0.5"/>
          <path id="Path_12930" data-name="Path 12930" d="M211.949,139.448c0-33.076-21.805-47.331-48.68-31.8s-48.68,54.917-48.68,88.084v7.442c0,25.49,28.87,55.061,42.136,67.3a6.561,6.561,0,0,0,10.354-1.923c11.469-23.477,44.941-94.177,44.941-121.591Zm-48.68,52.509c-13.446,7.766-24.34,1.474-24.34-14.057s10.894-34.389,24.34-42.154,24.34-1.474,24.34,14.057-10.894,34.389-24.34,42.154Z" transform="translate(-95.122 -90.137)" fill="#fe0030"/>
          <path id="Path_12931" data-name="Path 12931" d="M201.15,108.927,184.288,99.22a24.843,24.843,0,0,0-14.021-4.1,21.354,21.354,0,0,0-2.373.108,19.255,19.255,0,0,0-2.445.288,16.986,16.986,0,0,0-2.5.467c-.845.18-1.8.413-2.571.665a48.763,48.763,0,0,0-5.285,1.959c-.9.4-1.8.845-2.714,1.276s-1.8.971-2.75,1.492c-18.174,10.5-34.011,31.926-42.37,54.935l19.468,11.235c8.359-22.992,24.214-44.419,42.406-54.917C181.394,105.547,192.593,104.666,201.15,108.927Z" transform="translate(-100.968 -95.119)" fill="#fe0030"/>
          <path id="Path_12932" data-name="Path 12932" d="M201.15,108.927,184.288,99.22a24.843,24.843,0,0,0-14.021-4.1,21.354,21.354,0,0,0-2.373.108,19.255,19.255,0,0,0-2.445.288,16.986,16.986,0,0,0-2.5.467c-.845.18-1.8.413-2.571.665a48.763,48.763,0,0,0-5.285,1.959c-.9.4-1.8.845-2.714,1.276s-1.8.971-2.75,1.492c-18.174,10.5-34.011,31.926-42.37,54.935l19.468,11.235c8.359-22.992,24.214-44.419,42.406-54.917C181.394,105.547,192.593,104.666,201.15,108.927Z" transform="translate(-100.968 -95.119)" fill="#fff" opacity="0.3"/>
          <path id="Path_12933" data-name="Path 12933" d="M163.367,104.86l-2.876,1.977a31.39,31.39,0,0,0-2.84,2.031c-1.8,1.492-3.7,2.84-5.393,4.494s-3.433,3.128-4.979,4.872l-2.391,2.535-2.229,2.678a127.128,127.128,0,0,0-24.933,49.273c-.611,2.247-.971,4.548-1.456,6.813s-.629,4.6-.971,6.9a69.178,69.178,0,0,0-.449,6.975l-.162,6.975-.2-6.993c0-2.337,0-4.692.09-7.029a65.778,65.778,0,0,1,.755-7.011c.342-2.319.7-4.638,1.258-6.921a115.623,115.623,0,0,1,25.167-49.794A79.94,79.94,0,0,1,163.367,104.86Z" transform="translate(-95.201 -87.349)" fill="#fe0030"/>
          <g id="Group_172" data-name="Group 172" transform="translate(19.289 17.511)" opacity="0.5">
            <path id="Path_12934" data-name="Path 12934" d="M163.367,104.86l-2.876,1.977a31.39,31.39,0,0,0-2.84,2.031c-1.8,1.492-3.7,2.84-5.393,4.494s-3.433,3.128-4.979,4.872l-2.391,2.535-2.229,2.678a127.128,127.128,0,0,0-24.933,49.273c-.611,2.247-.971,4.548-1.456,6.813s-.629,4.6-.971,6.9a69.178,69.178,0,0,0-.449,6.975l-.162,6.975-.2-6.993c0-2.337,0-4.692.09-7.029a65.778,65.778,0,0,1,.755-7.011c.342-2.319.7-4.638,1.258-6.921a115.623,115.623,0,0,1,25.167-49.794A79.94,79.94,0,0,1,163.367,104.86Z" transform="translate(-114.49 -104.86)" fill="#fff"/>
          </g>
        </g>
      </g>
      <g id="freepik--Road--inject-108" transform="translate(5.004 584.309)">
        <g id="freepik--road--inject-108-2" data-name="freepik--road--inject-108">
          <path id="Path_12935" data-name="Path 12935" d="M29.24,437.194l212.119,122.6a188.229,188.229,0,0,0,188.157,0L592.687,465.4,438.811,376.416l-63.888,37.157a78.951,78.951,0,0,1-78.97,0L183.117,348.338c-26.964-15.549-70.934-15.567-97.845,0l-56.05,32.357C2.348,396.208,2.348,421.645,29.24,437.194Z" transform="translate(-9.069 -336.669)" fill="#e0e0e0"/>
          <path id="Path_12936" data-name="Path 12936" d="M257.832,410.11l-25.67,14.812a124.043,124.043,0,0,1-16.772,8.089l8.7,7.388a142.39,142.39,0,0,0,19.019-9.168l25.67-14.812Z" transform="translate(155.498 -278.09)" fill="#fafafa"/>
          <path id="Path_12937" data-name="Path 12937" d="M302.2,381.79,269.93,400.521l10.93,6.31,32.267-18.713Z" transform="translate(199 -300.679)" fill="#fafafa"/>
          <path id="Path_12938" data-name="Path 12938" d="M156.93,415.79,146,422.1l7.963,4.6a142.48,142.48,0,0,0,42.981,16.179l5.141-8.413a123.821,123.821,0,0,1-37.175-14.147Z" transform="translate(100.151 -273.56)" fill="#fafafa"/>
          <path id="Path_12939" data-name="Path 12939" d="M101.73,383.9,59.558,359.56,48.61,365.87,90.8,390.227Z" transform="translate(22.47 -318.41)" fill="#fafafa"/>
          <path id="Path_12940" data-name="Path 12940" d="M91.25,390.49l42.172,24.358,10.948-6.31L102.18,384.18Z" transform="translate(56.481 -298.773)" fill="#fafafa"/>
        </g>
      </g>
      <g id="freepik--Car--inject-108" transform="translate(20.366 553.193)">
        <g id="freepik--car--inject-108-2" data-name="freepik--car--inject-108">
          <path id="freepik--shadow--inject-108-3" data-name="freepik--shadow--inject-108" d="M107.334,347.882,26.657,394.621c-11.379,6.6-11.379,17.257,0,23.819l151.881,87.454c56.967,32.986,167.7-44.941,122.059-70.449l-152.025-87.58C137.193,341.267,118.713,341.267,107.334,347.882Z" transform="translate(-17.209 -300.568)" opacity="0.15"/>
          <g id="freepik--car--inject-108-3" data-name="freepik--car--inject-108">
            <g id="freepik--Interiors--inject-108" transform="translate(18.076)">
              <path id="Path_12941" data-name="Path 12941" d="M64.53,321.59a48.662,48.662,0,0,1,38.936,4.314c4.494,2.517,13.572,7.8,24.825,14.381a131.025,131.025,0,0,0,29.679,22.291c31.44,16.376,52.634,26.245,52.634,26.245a6.326,6.326,0,0,1-1.977,1.079c-9.348,3.775-31.458,24.142-46.738,18.713C144.2,402.231,64.53,321.59,64.53,321.59Z" transform="translate(1.73 -319.359)" fill="#fe0030"/>
              <path id="Path_12942" data-name="Path 12942" d="M162.836,367.332s-37.283-16.34-42.514-19.612a81.947,81.947,0,0,1-11.523-8.467c-1.8-1.672-1.312,3.937,7.856,8.988C128.987,355.216,162.836,367.332,162.836,367.332Z" transform="translate(36.377 -303.731)" fill="#fff" opacity="0.2"/>
              <path id="Path_12943" data-name="Path 12943" d="M110.255,333.152c0,1.618-.144,3.847-.306,6.777a13.32,13.32,0,0,0,2.193,8.988,17.976,17.976,0,0,0,6,5.5c18.444,11.271,61.407,23.675,61.407,23.675l-1.959,1.079-51.286-5.734-22.344-14.669-.5-24.16,3.451-1.8Z" transform="translate(32.782 -308.631)" fill="#37474f"/>
              <path id="Path_12944" data-name="Path 12944" d="M103.45,334.578V335.8a7.316,7.316,0,0,0,2.3,3.6,3.6,3.6,0,0,0,1.905.539c1.222,0,2.3-.629,2.355-1.636v-.809c.108-1.906.162-3.182.162-4.332l-3.344-.377Z" transform="translate(32.774 -308.655)" fill="#fe0030"/>
              <path id="Path_12945" data-name="Path 12945" d="M103.45,334.578V335.8a7.316,7.316,0,0,0,2.3,3.6,3.6,3.6,0,0,0,1.905.539c1.222,0,2.3-.629,2.355-1.636v-.809c.108-1.906.162-3.182.162-4.332l-3.344-.377Z" transform="translate(32.774 -308.655)" opacity="0.3"/>
              <path id="Path_12946" data-name="Path 12946" d="M85.931,328.338c3.7-8.754,10.5-8.736,21.7-7.19,1.294.18,29.894,6.166,45.893,12.3,12.1,4.62,15.657,8.125,16.628,8.682,2.229,1.294-1.474,3.434-3.937,2.265v4.979c.306,8.665,1.8,9.977,5.9,14.651,1.8,1.923,6.831,4.512,9.635,6.076,5.213,2.948,4.961.647,18.839,6,5.95,2.283,34.532,13.015,37.588,12.979l-76.057,47.637L138.1,454.693,27.67,366.538Z" transform="translate(-27.67 -318.558)" fill="#fe0030"/>
              <path id="Path_12947" data-name="Path 12947" d="M141.177,336.366l-8.9-5.986L58.9,370.431l11.7,6.741-.018,45.246,70.593-40.77Z" transform="translate(-2.76 -310.569)" fill="#fe0030"/>
              <path id="Path_12948" data-name="Path 12948" d="M150.39,336.366l-8.9-5.986L66.045,367.771l-18.7,2.463,4.836,14.92L79.8,422.418l70.593-40.77Z" transform="translate(-11.973 -310.569)" opacity="0.25"/>
              <path id="Path_12949" data-name="Path 12949" d="M114.035,331.944c5.878,1.8,9.833,2.93,8.359,3.739S83.206,326.192,75.836,324.9s-13.069-1.923-3.919-3.955c8.161-1.8,13.392-1.24,18.264.449a136.614,136.614,0,0,1,14.039,6.723s-23.567-5.806-24.466-5.932-3.11,0,2.427,1.564S108.193,330.146,114.035,331.944Z" transform="translate(3.853 -318.982)" fill="#fff" opacity="0.2"/>
              <path id="Path_12950" data-name="Path 12950" d="M116.3,391.086s-1.186-24.3-2.067-42.586c5.878,3.02,4.584.252,17.185,5.105,5.177,2.013,27.54,10.408,35.233,12.583l2.355.485-44.635,27.935Z" transform="translate(41.372 -296.116)" opacity="0.3"/>
            </g>
            <g id="freepik--back-car--inject-108" transform="translate(0 3.628)">
              <path id="Path_12951" data-name="Path 12951" d="M22.486,381.362l29.948-17.293-16.646-9.6L19.61,364.68Z" transform="translate(-16.023 -294.983)" fill="#fe0030"/>
              <path id="Path_12952" data-name="Path 12952" d="M22.486,381.362l29.948-17.293-16.646-9.6L19.61,364.68Z" transform="translate(-16.023 -294.983)" opacity="0.45"/>
              <path id="Path_12953" data-name="Path 12953" d="M30.136,374.081l-4.3-8.539,10.228-5.914h0c3.254-1.8,7.586-1.654,12.35,1.079,10.067,5.932,18.3,20.888,18.3,33.616,0,6.669-2.247,11.361-5.842,13.5h-.144l-10.5,6.04-4.53-8.988C37.111,398.4,30.478,385.442,30.136,374.081Z" transform="translate(-11.053 -291.818)" fill="#37474f"/>
              <path id="Path_12954" data-name="Path 12954" d="M30.136,374.081l-4.3-8.539,10.228-5.914h0c3.254-1.8,7.586-1.654,12.35,1.079,10.067,5.932,18.3,20.888,18.3,33.616,0,6.669-2.247,11.361-5.842,13.5h-.144l-10.5,6.04-4.53-8.988C37.111,398.4,30.478,385.442,30.136,374.081Z" transform="translate(-11.053 -291.818)" fill="#263238"/>
              <path id="Path_12955" data-name="Path 12955" d="M22.3,376.629a43.826,43.826,0,0,0,14.255,30.685h0a25.777,25.777,0,0,0,4.009,2.876c10.1,5.842,18.3.252,18.282-12.475A44.168,44.168,0,0,0,47.539,369.87h0a30.306,30.306,0,0,0-6.921-5.7C30.5,358.311,22.3,363.92,22.3,376.629Z" transform="translate(-13.877 -289.099)" fill="#37474f"/>
              <path id="Path_12956" data-name="Path 12956" d="M37.649,368.028C31.213,364.307,26,368.172,26,376.657s5.213,18.372,11.649,22.093,11.721-.162,11.721-8.647S44.066,371.731,37.649,368.028Z" transform="translate(-10.926 -285.298)" fill="#455a64"/>
              <path id="Path_12957" data-name="Path 12957" d="M29.581,377.1c.413,4.224,3.092,8.719,5.986,10.031a2.822,2.822,0,0,0,3.164-.234,5.77,5.77,0,0,0,1.33-5.015c-.4-4.224-3.074-8.719-5.968-10.031a3.344,3.344,0,0,0-2.139-.305h0C30.372,371.959,29.293,374.027,29.581,377.1Z" transform="translate(-8.107 -281.409)" fill="#fafafa"/>
              <path id="Path_12958" data-name="Path 12958" d="M30.193,376.561c.413,4.224,3.092,8.719,5.986,10.049a3.4,3.4,0,0,0,2.121.288,5.771,5.771,0,0,0,1.33-5.015c-.4-4.224-3.074-8.719-5.968-10.031a3.344,3.344,0,0,0-2.139-.306h0a5.806,5.806,0,0,0-1.33,5.015Z" transform="translate(-7.677 -281.409)" fill="#e0e0e0"/>
              <path id="Path_12959" data-name="Path 12959" d="M22.3,376.635a43.826,43.826,0,0,0,14.255,30.685,51.9,51.9,0,0,1-11.613-22.452C23.4,377.534,23.99,367,30.335,364.339s14.6,2.948,17.239,5.5a30.307,30.307,0,0,0-6.921-5.7C30.5,358.317,22.3,363.926,22.3,376.635Z" transform="translate(-13.877 -289.105)" fill="#455a64"/>
              <path id="Path_12960" data-name="Path 12960" d="M21.076,353.109c3.7-8.754,19.181-17.868,25.778-14.561,2.049,1.025,7.892,4.566,15.262,8.808,0,0,24.2,14.651,26.443,15.927,0,0-11.577-.18-14.2.773a2.786,2.786,0,0,0-1.941,3.7l1.33,4.3c3,14.6,25.814,20.655,30.667,26.084a19.775,19.775,0,0,0,5.9,4.224c2.786,1.6,20.1,11.271,22.578,12.709,4.44,2.553,11.649,5.824,11.649,5.824V464.04l-76.075-43.7a33.6,33.6,0,0,0-.2-3.6c-1.42-13.913-11.613-30.092-22.614-36.528-11.936-6.885-21.571-.449-21.571,14.381l-1.923-1.115C15.216,389.349,17.373,361.863,21.076,353.109Z" transform="translate(-17.614 -308.236)" fill="#fe0030"/>
              <path id="Path_12961" data-name="Path 12961" d="M45.293,352.13c4.674,0,4.872,2.427,6.4,7.19,1.186,3.775,3.038,7.19.791,6.04S42.435,355.923,41,354.485C38.1,351.555,43.172,352.13,45.293,352.13Z" transform="translate(0.341 -296.885)"/>
              <path id="Path_12962" data-name="Path 12962" d="M30.35,350.887a9.761,9.761,0,0,1,6.382.342c2.049,1.025,7.892,4.566,15.262,8.808l9.9,5.7,52.832-30.416s-20.493-10.462-27.773-13.266S32.417,345.494,30.35,350.887Z" transform="translate(-7.456 -321.006)" fill="#fe0030"/>
              <path id="Path_12963" data-name="Path 12963" d="M106.094,395.969,65.306,372.6a3.146,3.146,0,0,0-1.222,2.714Z" transform="translate(19.444 -280.522)" fill="#fff" opacity="0.2"/>
              <path id="Path_12964" data-name="Path 12964" d="M71.63,380.8a.252.252,0,0,0,.378-.216V379.4c0-.881-1.33-2.355-2.948-3.29l-2.409-1.4c-1.618-.935-2.93-.971-2.93,0v.953a1.06,1.06,0,0,0,.557.953Z" transform="translate(19.16 -279.411)" fill="#37474f"/>
              <path id="Path_12965" data-name="Path 12965" d="M74.563,385.079c2.1,1.564,14.021,8.683,15.675,9.725a8.107,8.107,0,0,0-2.085,3.38S45.837,373.754,35.5,364.6s-16-17.671-8.035-22.111c2.427-1.348,4.692-3.146,7.622-2.067a2.373,2.373,0,0,1,.593.324,2.21,2.21,0,0,1,.485,1.061c2.337,9.1,9.779,15.909,15.8,22.794a163.961,163.961,0,0,0,22.6,20.475Z" transform="translate(-12.751 -306.447)" fill="#fff" opacity="0.2"/>
              <path id="Path_12966" data-name="Path 12966" d="M119.248,334.431S69.094,320.3,65.535,322.4s43.808,23.01,43.808,23.01Z" transform="translate(20.456 -320.729)" opacity="0.15"/>
              <path id="Path_12967" data-name="Path 12967" d="M102.711,415.4c1.8.953,2.157-2.894,3.182-10.39A181.148,181.148,0,0,0,106.809,385c1.24,5.609.719,19.217,0,27.917s-2.355,7.91-4.1,6.615L62.3,394.707Z" transform="translate(18.028 -270.631)" opacity="0.15"/>
              <path id="Path_12968" data-name="Path 12968" d="M65.4,372.174a13.806,13.806,0,0,0-2.319,8.629c0,7.19,0,24,0,24s-1.33-18.8-2.121-24.7a11.828,11.828,0,0,1,2.193-9.222Z" transform="translate(16.812 -281.894)" opacity="0.15"/>
              <path id="Path_12969" data-name="Path 12969" d="M37.87,368.355a23.171,23.171,0,0,1,2.5-6.957c1.456-1.906,9.2-2.858,9.2-2.858s-6.076,2.1-7.766,3.883a39.68,39.68,0,0,0-3.937,5.932Z" transform="translate(-1.458 -291.736)" opacity="0.15"/>
              <path id="Path_12970" data-name="Path 12970" d="M30.565,369s-7.73-4.422-9.384-7.334-2.373-12.583-2.373-12.583-.665,11.109,1.276,13.77S30.565,369,30.565,369Z" transform="translate(-16.749 -299.282)" opacity="0.15"/>
              <path id="Path_12971" data-name="Path 12971" d="M36.071,368.352c6.543-6.274,14.543-10.786,22.219-15.549s15.244-9.312,22.974-13.788c6.346-3.7,12.745-7.37,19.324-10.642a50.211,50.211,0,0,1,5.393-2.427,4.788,4.788,0,0,1,.7-.252h0c.917-.288,2.067-.629,3.4-.971a98.868,98.868,0,0,1,28.546-3.272c8.862.557,53.659,21.967,58.6,27.7a103.187,103.187,0,0,1,6.507,8.125s-6.112-4.71-9.114-3.6c-2.409.881-19.774,16.484-31.369,22.65-13.788,7.262-33.058,14.453-37.75,16.682s-1.8,7.946-1.8,7.946a28.169,28.169,0,0,0-6.094-7.766c-4.908-4.206-24.951-14.615-25.167-14.776a22.471,22.471,0,0,0-8.988-2.463l-20.87.647-23.836-5.087a7.191,7.191,0,0,1-3.6-1.061A2.249,2.249,0,0,1,36.071,368.352Z" transform="translate(-3.668 -321.358)" fill="#fe0030"/>
              <path id="Path_12972" data-name="Path 12972" d="M115.967,394.427a153.221,153.221,0,0,0-19.414-13.32c-11.721-6.867-14.776-8.107-26.874-8.161-9.24,0-18.48.252-27.719.324a2.553,2.553,0,0,1-1.222-.2.809.809,0,0,1-.4-1.061,1.276,1.276,0,0,1,.683-.449c6.382-2.247,16.412-3.02,22.452-6.094,5.177-2.624,10.246-5.519,15.3-8.395,13.9-7.928,26.964-15.442,40.788-24.627,12.853-8.575,14.758-11.235,19.99-10.318C154.2,326.71,188.9,343.7,193.211,348.677h0v2.517l-2.085,1.8a2.44,2.44,0,0,0-.521.108c-2.175.809-16.574,13.68-27.953,20.691-1.133.665-2.265,1.33-3.415,1.959-11.972,6.31-27.881,12.583-35.108,15.585C119.2,393.276,115.967,394.427,115.967,394.427Z" transform="translate(0.457 -320.918)" fill="#fff" opacity="0.15"/>
              <path id="Path_12973" data-name="Path 12973" d="M44.407,371.3a108.649,108.649,0,0,0,11-1.8,48.751,48.751,0,0,0,12.188-3.6c5.177-2.625,10.246-5.519,15.3-8.395,13.9-7.928,26.964-15.442,40.788-24.627,12.853-8.557,14.758-11.235,19.99-10.318a23.963,23.963,0,0,0-4.943-1.15,100.453,100.453,0,0,0-31.908,4.26,44.114,44.114,0,0,0-6.2,2.715c-6.579,3.272-12.979,6.939-19.324,10.642-7.73,4.476-15.388,9.1-22.974,13.788S42.646,362.1,36.1,368.372c-.593.557-1.222,1.348-.917,2.1a10.085,10.085,0,0,0,6.094,1.061C42.3,371.481,43.365,371.41,44.407,371.3Z" transform="translate(-3.663 -321.378)" opacity="0.15"/>
              <path id="Path_12974" data-name="Path 12974" d="M48.493,366.346A72.769,72.769,0,0,0,73.48,356.98c5.573-3.218,31.764-19.145,41.345-24.7s12.4-8.251,7.6-8.431a85.558,85.558,0,0,0-11.2,1.366,40.592,40.592,0,0,0-14.974,5.573c-12.583,7.19-24.142,14.381-40.357,23.783C29.2,369.977,37.474,368.125,48.493,366.346Z" transform="translate(-1.313 -319.406)" fill="#37474f"/>
              <path id="Path_12975" data-name="Path 12975" d="M49.06,362.549c1.312,4.925,2.265,6.9,5.68,9.707,6.831,5.609,24.753,16.556,26.137,17.437s1.69,1.061,2.822,1.8l29.247,16.88s19.882,10.211,19.163,6.453-13.95-31.009-16.286-35.952-3.074-8.251-7.874-10.93S86.792,355.61,83.7,353.777c-.252-.162-.5-.288-.773-.431A24.394,24.394,0,0,0,69.535,350.7c-5.842.27-18.551.431-21.715,2.391C45.842,354.334,47.514,356.707,49.06,362.549Zm31.422,21.338V357.192a1.078,1.078,0,0,1,1.618-.845h0c3.11,1.8,19.127,10.786,24.3,13.734,2.355,1.33,4.117,4.332,5.914,8.7s11.559,24.825,15.01,33.346c-.108,0-16.61-7.694-27.773-14.381-8.7-5.159-14.489-8.089-16.718-9.473a4.566,4.566,0,0,1-2.355-4.386Zm-6.346-30.236c2.643.449,3.451,1.8,3.344,4.961v22.111c0,2.049-.4,3.721-2.265,2.463-4.782-3.11-17.671-11.2-19.954-13.033-2.93-2.391-5.069-12.224-5.627-14.6C48.862,352.572,70.865,353.111,74.137,353.651Z" transform="translate(5.759 -298.064)" fill="#263238"/>
              <path id="Path_12976" data-name="Path 12976" d="M67.992,385.831c2.229,1.384,8.017,4.314,16.718,9.473,11.163,6.633,27.665,14.273,27.773,14.381-3.451-8.521-13.195-29-15.01-33.346s-3.6-7.37-5.914-8.7c-5.177-2.894-21.194-11.9-24.3-13.734h0a1.079,1.079,0,0,0-1.618.845v26.695a4.566,4.566,0,0,0,2.355,4.386Z" transform="translate(20.677 -295.55)" fill="#263238"/>
              <path id="Path_12977" data-name="Path 12977" d="M48.439,354.393c.557,2.373,2.7,12.206,5.627,14.6,2.283,1.8,15.208,9.887,19.972,13.033,1.8,1.258,2.265-.413,2.265-2.463V357.449c.108-3.236-.7-4.512-3.344-4.961C69.669,351.948,47.666,351.409,48.439,354.393Z" transform="translate(6.956 -296.901)" fill="#263238"/>
              <path id="Path_12978" data-name="Path 12978" d="M67.992,385.831c2.229,1.384,8.017,4.314,16.718,9.473,11.163,6.633,27.665,14.273,27.773,14.381-3.451-8.521-13.195-29-15.01-33.346s-3.6-7.37-5.914-8.7c-5.177-2.894-21.194-11.9-24.3-13.734h0a1.079,1.079,0,0,0-1.618.845v26.695a4.566,4.566,0,0,0,2.355,4.386Z" transform="translate(20.677 -295.55)" opacity="0.35"/>
              <path id="Path_12979" data-name="Path 12979" d="M48.439,354.393c.557,2.373,2.7,12.206,5.627,14.6,2.283,1.8,15.208,9.887,19.972,13.033,1.8,1.258,2.265-.413,2.265-2.463V357.449c.108-3.236-.7-4.512-3.344-4.961C69.669,351.948,47.666,351.409,48.439,354.393Z" transform="translate(6.956 -296.901)" opacity="0.35"/>
            </g>
            <g id="freepik--front-car--inject-108" transform="translate(116.447 31.388)">
              <path id="Path_12980" data-name="Path 12980" d="M96.906,406.746a480.8,480.8,0,0,1,41.723-27.881,259.7,259.7,0,0,1,45.138-20.3c-.629,2.373-4.368,6.13-9.4,10.211-3.6,2.912-7.586,5.878-12.242,8.988-10.965,7.676-21.356,12.961-25.167,15.208C118.1,403.2,98.9,411.15,95.72,407.357Z" transform="translate(-71.762 -319.472)" fill="#455a64"/>
              <path id="Path_12981" data-name="Path 12981" d="M95.74,407.393c.9-.575,30.739-18.965,44.527-27.252,13.123-7.892,40.195-20.079,43.467-21.571a241.528,241.528,0,0,0-45.12,20.3A508.948,508.948,0,0,0,95.74,407.393Z" transform="translate(-71.746 -319.472)" fill="#37474f"/>
              <path id="Path_12982" data-name="Path 12982" d="M142.318,358.557h0l.665,2.8c1.546,2.894,4.979,6.561,6.2,6.256s1.8-1.8,2.121-3.829h0a18.348,18.348,0,0,0,.27-2.858c.108-3.092-1.276-10.336-5.573-12.26a2.229,2.229,0,0,0-2.553.575,5.2,5.2,0,0,0-1.258,2.049,19.774,19.774,0,0,0,.126,7.262Z" transform="translate(-34.915 -327.512)" fill="#fe0030"/>
              <path id="Path_12983" data-name="Path 12983" d="M142.318,358.557h0c.216,1.168.665,2.8.665,2.8,1.546,2.894,4.979,6.561,6.2,6.256s1.8-1.8,2.121-3.829h0a18.348,18.348,0,0,0,.27-2.858c.108-3.092-1.276-10.336-5.573-12.26a2.229,2.229,0,0,0-2.553.575,5.2,5.2,0,0,0-1.258,2.049,19.774,19.774,0,0,0,.126,7.262Z" transform="translate(-34.915 -327.512)" opacity="0.3"/>
              <path id="Path_12984" data-name="Path 12984" d="M142.51,361.362c1.546,2.894,4.979,6.561,6.2,6.256s1.8-1.8,2.121-3.829h0a18.348,18.348,0,0,0,.27-2.858c.108-3.092-1.276-10.336-5.573-12.26a2.229,2.229,0,0,0-2.553.575l.575,1.33c3.02,1.276,3.829,5.932,3.6,9.473S144.236,363.2,142.51,361.362Z" transform="translate(-34.442 -327.512)" fill="#fe0030"/>
              <path id="Path_12985" data-name="Path 12985" d="M142.51,361.362c1.546,2.894,4.979,6.561,6.2,6.256s1.8-1.8,2.121-3.829h0a18.348,18.348,0,0,0,.27-2.858c.108-3.092-1.276-10.336-5.573-12.26a2.229,2.229,0,0,0-2.553.575l.575,1.33c3.02,1.276,3.829,5.932,3.6,9.473S144.236,363.2,142.51,361.362Z" transform="translate(-34.442 -327.512)" opacity="0.35"/>
              <path id="Path_12986" data-name="Path 12986" d="M142.08,351.242c1.079-1.15,3.793-1.2,6.058,1.924a21.446,21.446,0,0,1,3.038,10.57,20.8,20.8,0,0,0,.288-2.858c.108-3.11-1.276-10.336-5.591-12.26C144.075,347.863,142.583,349.7,142.08,351.242Z" transform="translate(-34.785 -327.55)" fill="#37474f"/>
              <path id="Path_12987" data-name="Path 12987" d="M88.25,419.924l29.93-17.275-16.628-9.6-13.3,7.694Z" transform="translate(-77.721 -291.97)" fill="#fe0030"/>
              <path id="Path_12988" data-name="Path 12988" d="M88.25,419.924l29.93-17.275-16.628-9.6-13.3,7.694Z" transform="translate(-77.721 -291.97)" opacity="0.45"/>
              <path id="Path_12989" data-name="Path 12989" d="M97.006,412.551l-4.3-8.539,10.228-5.914h0c3.254-1.8,7.586-1.654,12.35,1.079,10.1,5.842,18.3,20.888,18.3,33.616,0,6.669-2.247,11.361-5.842,13.5h0l-.144.09h0l-10.48,6.04-4.548-8.988C104.017,436.873,97.348,423.912,97.006,412.551Z" transform="translate(-74.163 -288.893)" fill="#37474f"/>
              <path id="Path_12990" data-name="Path 12990" d="M97.006,412.551l-4.3-8.539,10.228-5.914h0c3.254-1.8,7.586-1.654,12.35,1.079,10.1,5.842,18.3,20.888,18.3,33.616,0,6.669-2.247,11.361-5.842,13.5h0l-.144.09h0l-10.48,6.04-4.548-8.988C104.017,436.873,97.348,423.912,97.006,412.551Z" transform="translate(-74.163 -288.893)" fill="#263238"/>
              <path id="Path_12991" data-name="Path 12991" d="M89.17,415.086a43.826,43.826,0,0,0,14.255,30.7h0a25.783,25.783,0,0,0,4.009,2.876c10.1,5.842,18.3.252,18.3-12.475a44.186,44.186,0,0,0-11.325-27.863h0a29.838,29.838,0,0,0-6.921-5.7C97.367,396.786,89.17,402.376,89.17,415.086Z" transform="translate(-76.987 -286.178)" fill="#37474f"/>
              <path id="Path_12992" data-name="Path 12992" d="M104.519,406.5c-6.435-3.721-11.649.144-11.649,8.629s5.213,18.372,11.649,22.093,11.649-.162,11.649-8.647S110.954,410.2,104.519,406.5Z" transform="translate(-74.036 -282.373)" fill="#455a64"/>
              <path id="Path_12993" data-name="Path 12993" d="M96.447,415.616c.449,4.206,3.164,8.682,6.058,9.977a2.822,2.822,0,0,0,3.182-.27,5.824,5.824,0,0,0,1.294-5.015c-.449-4.224-3.164-8.7-6.076-9.995a3.146,3.146,0,0,0-2.121-.27h0C97.112,410.457,96.124,412.542,96.447,415.616Z" transform="translate(-71.231 -278.476)" fill="#fafafa"/>
              <path id="Path_12994" data-name="Path 12994" d="M97.058,415.059c.449,4.224,3.164,8.7,6.058,9.995a3.308,3.308,0,0,0,2.139.27,5.824,5.824,0,0,0,1.294-5.015c-.449-4.224-3.164-8.7-6.076-9.995a3.146,3.146,0,0,0-2.121-.27h0a5.752,5.752,0,0,0-1.294,5.015Z" transform="translate(-70.8 -278.476)" fill="#e0e0e0"/>
              <path id="Path_12995" data-name="Path 12995" d="M89.17,415.089a43.826,43.826,0,0,0,14.255,30.7A51.9,51.9,0,0,1,91.813,423.34c-1.546-7.334-.953-17.868,5.393-20.529s14.615,2.948,17.239,5.5a29.841,29.841,0,0,0-6.921-5.7C97.367,396.789,89.17,402.379,89.17,415.089Z" transform="translate(-76.987 -286.181)" fill="#455a64"/>
              <path id="Path_12996" data-name="Path 12996" d="M88.236,405.4s1.8-.324,1.33-1.8c0,0,10.193,4.674,12.332,5.393,4.674,1.546,22.237-4.71,41.094-14.938,3.775-2.247,14.165-7.532,25.167-15.208,4.656-3.11,8.665-6.076,12.242-8.988a57.124,57.124,0,0,0,8.269-8.179,4.746,4.746,0,0,0,1.115-4.4c37.408,26.623,57.919,37.642,53.533,67.986a67.359,67.359,0,0,1-.953,6.723c-1.24,6.849-4.89,18.48-14.381,25.167a140.6,140.6,0,0,1-20.942,12.853,87.869,87.869,0,0,1-42.891,10.444c-17.329-.557-32.483-7.19-32.968-11.163a40.717,40.717,0,0,0-.971-5.393,53.192,53.192,0,0,0-5.105-13.051,45.444,45.444,0,0,0-13.248-15.406,22.694,22.694,0,0,0-2.049-1.294c-11.127-6.435-20.313-1.258-21.482,11.5-.09.935-.126,1.887-.126,2.894Z" transform="translate(-77.76 -320.501)" fill="#fe0030"/>
              <path id="Path_12997" data-name="Path 12997" d="M152.351,434.758a94.269,94.269,0,0,0,26.281-11.451,56.806,56.806,0,0,0,15.5-12.314c2.7-3.38,4.332-7.766,2.625-7.191a124.025,124.025,0,0,1-12.817,9.959c-11.667,7.065-24.034,15.819-43.143,16.179a15.752,15.752,0,0,0-3.6.288C132.559,431.684,145.017,436.663,152.351,434.758Z" transform="translate(-39.483 -283.434)" fill="#455a64"/>
              <path id="Path_12998" data-name="Path 12998" d="M123.82,416.228c1.061-.144,3.7.557,8.215,1.8s5.573,1.42,7.19,2.571a84.648,84.648,0,0,0,6.993,4.979c2.894,1.492,0,2.553-8.053,2.571s-10.786-2.409-12.583-4.889S121.376,416.57,123.82,416.228Z" transform="translate(-50.176 -273.497)" fill="#455a64"/>
              <path id="Path_12999" data-name="Path 12999" d="M176.9,396.16h0c-.126,1.1-.36,2.678-.737,4.764a50.834,50.834,0,0,1-2.894,9.923,2.7,2.7,0,0,1-1.474.9c-1.384-.09-.2-2.463.773-6S176.014,398.767,176.9,396.16Z" transform="translate(-11.59 -289.489)" fill="#455a64"/>
              <path id="Path_13000" data-name="Path 13000" d="M178.039,391.112a190.1,190.1,0,0,1-34.155,19.774,3.074,3.074,0,0,0-1.51,4.53,20.907,20.907,0,0,0,6.471,5.716,9.276,9.276,0,0,0,6.633,0,85.694,85.694,0,0,0,25.706-14.687,9.708,9.708,0,0,0,3.272-5.806,25.563,25.563,0,0,0-1.276-8.988C182.425,389.674,179.639,389.961,178.039,391.112Z" transform="translate(-34.935 -294.238)" fill="#fff" opacity="0.85"/>
              <path id="Path_13001" data-name="Path 13001" d="M150.743,418.709a8.988,8.988,0,0,0,2.967-.5,84.629,84.629,0,0,0,25.166-14.381,7.964,7.964,0,0,0,2.535-4.278,23.369,23.369,0,0,0-1.115-8.071c-.342-.683-1.456.162-1.8.467a193.573,193.573,0,0,1-34.586,19.918,1.33,1.33,0,0,0-.773.845.575.575,0,0,0,.09.485A18.841,18.841,0,0,0,149,418.3,4.35,4.35,0,0,0,150.743,418.709Z" transform="translate(-33.956 -293.433)" fill="#fe0030"/>
              <path id="Path_13002" data-name="Path 13002" d="M150.743,418.709a8.988,8.988,0,0,0,2.967-.5,84.629,84.629,0,0,0,25.166-14.381,7.964,7.964,0,0,0,2.535-4.278,23.369,23.369,0,0,0-1.115-8.071c-.342-.683-1.456.162-1.8.467a193.573,193.573,0,0,1-34.586,19.918,1.33,1.33,0,0,0-.773.845.575.575,0,0,0,.09.485A18.841,18.841,0,0,0,149,418.3,4.35,4.35,0,0,0,150.743,418.709Z" transform="translate(-33.956 -293.433)" opacity="0.35"/>
              <path id="Path_13003" data-name="Path 13003" d="M158.6,408.977l2.049-.485a53.928,53.928,0,0,0-4.89-12.332l-1.8,1.043a52.618,52.618,0,0,1,4.638,11.775Z" transform="translate(-25.309 -289.489)" fill="#fe0030"/>
              <path id="Path_13004" data-name="Path 13004" d="M158.6,408.977l2.049-.485a53.928,53.928,0,0,0-4.89-12.332l-1.8,1.043a52.618,52.618,0,0,1,4.638,11.775Z" transform="translate(-25.309 -289.489)" fill="#fff" opacity="0.85"/>
              <path id="Path_13005" data-name="Path 13005" d="M142.748,413.6a176.169,176.169,0,0,0,22.237-11.055c8.2-5.033,16.322-10.875,16.394-10.929l-.2-.288c-.09,0-8.2,5.9-16.394,10.912a173.94,173.94,0,0,1-22.147,11.019Z" transform="translate(-34.338 -293.342)" fill="#fe0030"/>
              <path id="Path_13006" data-name="Path 13006" d="M143.338,413.891a171.607,171.607,0,0,0,21.9-10.786c8.2-5.015,15.747-10.534,15.819-10.588l-.2-.288s-7.622,5.555-15.8,10.57a172.973,172.973,0,0,1-21.823,10.786Z" transform="translate(-33.867 -292.624)" fill="#fe0030"/>
              <path id="Path_13007" data-name="Path 13007" d="M143.96,414.234a163.585,163.585,0,0,0,21.571-10.66c8.2-5.033,15.19-10.21,15.262-10.264l-.216-.27s-7.047,5.213-15.226,10.228a163.737,163.737,0,0,1-21.571,10.624Z" transform="translate(-33.429 -291.978)" fill="#fe0030"/>
              <path id="Path_13008" data-name="Path 13008" d="M144.526,414.545a151.549,151.549,0,0,0,21.212-10.462c8.2-5.033,14.633-9.869,14.687-9.9l-.216-.288s-6.471,4.872-14.651,9.887A154.415,154.415,0,0,1,144.4,414.221Z" transform="translate(-32.934 -291.3)" fill="#fe0030"/>
              <path id="Path_13009" data-name="Path 13009" d="M145.116,414.873a147.911,147.911,0,0,0,20.87-10.282c8.2-5.015,14.057-9.527,14.111-9.563l-.216-.288s-5.9,4.53-14.075,9.545a144.725,144.725,0,0,1-20.816,10.246Z" transform="translate(-32.463 -290.622)" fill="#fe0030"/>
              <path id="Path_13010" data-name="Path 13010" d="M145.706,415.184a141.152,141.152,0,0,0,20.529-10.067,158.808,158.808,0,0,0,13.554-9.24l-.216-.288a150.661,150.661,0,0,1-13.518,9.222A142.89,142.89,0,0,1,145.58,414.86Z" transform="translate(-31.993 -289.944)" fill="#fe0030"/>
              <path id="Path_13011" data-name="Path 13011" d="M146.278,415.5a135.428,135.428,0,0,0,20.205-9.887,130.021,130.021,0,0,0,12.979-8.9l-.216-.27a131.224,131.224,0,0,1-33.076,18.713Z" transform="translate(-31.522 -289.258)" fill="#fe0030"/>
              <g id="Group_173" data-name="Group 173" transform="translate(108.302 97.988)" opacity="0.85">
                <path id="Path_13012" data-name="Path 13012" d="M142.748,413.6a176.169,176.169,0,0,0,22.237-11.055c8.2-5.033,16.322-10.875,16.394-10.929l-.2-.288c-.09,0-8.2,5.9-16.394,10.912a173.94,173.94,0,0,1-22.147,11.019Z" transform="translate(-142.64 -391.33)" fill="#fff"/>
                <path id="Path_13013" data-name="Path 13013" d="M143.338,413.891a171.607,171.607,0,0,0,21.9-10.786c8.2-5.015,15.747-10.534,15.819-10.588l-.2-.288s-7.622,5.555-15.8,10.57a172.973,172.973,0,0,1-21.823,10.786Z" transform="translate(-142.169 -390.612)" fill="#fff"/>
                <path id="Path_13014" data-name="Path 13014" d="M143.96,414.234a163.585,163.585,0,0,0,21.571-10.66c8.2-5.033,15.19-10.21,15.262-10.264l-.216-.27s-7.047,5.213-15.226,10.228a163.737,163.737,0,0,1-21.571,10.624Z" transform="translate(-141.731 -389.966)" fill="#fff"/>
                <path id="Path_13015" data-name="Path 13015" d="M144.526,414.545a151.549,151.549,0,0,0,21.212-10.462c8.2-5.033,14.633-9.869,14.687-9.9l-.216-.288s-6.471,4.872-14.651,9.887A154.415,154.415,0,0,1,144.4,414.221Z" transform="translate(-141.236 -389.288)" fill="#fff"/>
                <path id="Path_13016" data-name="Path 13016" d="M145.116,414.873a147.911,147.911,0,0,0,20.87-10.282c8.2-5.015,14.057-9.527,14.111-9.563l-.216-.288s-5.9,4.53-14.075,9.545a144.725,144.725,0,0,1-20.816,10.246Z" transform="translate(-140.766 -388.61)" fill="#fff"/>
                <path id="Path_13017" data-name="Path 13017" d="M145.706,415.184a141.152,141.152,0,0,0,20.529-10.067,158.808,158.808,0,0,0,13.554-9.24l-.216-.288a150.661,150.661,0,0,1-13.518,9.222A142.89,142.89,0,0,1,145.58,414.86Z" transform="translate(-140.295 -387.932)" fill="#fff"/>
                <path id="Path_13018" data-name="Path 13018" d="M146.278,415.5a135.428,135.428,0,0,0,20.205-9.887,130.021,130.021,0,0,0,12.979-8.9l-.216-.27a131.224,131.224,0,0,1-33.076,18.713Z" transform="translate(-139.824 -387.246)" fill="#fff"/>
              </g>
              <path id="Path_13019" data-name="Path 13019" d="M147.09,361.692c1.672-.377,26.964,18.408,30.29,21.679s1.8,3.2-.917,8.647c-3.415,6.651.557,12.475-1.8,12.008-1.186-.216-6.328-10.786-13.86-21.158S144.232,362.25,147.09,361.692Z" transform="translate(-31.22 -316.986)" fill="#fff" opacity="0.2"/>
              <path id="Path_13020" data-name="Path 13020" d="M125.08,411.754c-1.42-1.708-2.427-3.793-1.222-5.626a11.2,11.2,0,0,1,6.058-3.452,24.61,24.61,0,0,1,18.605,2.121,11.846,11.846,0,0,1,3.451,2.732,5.555,5.555,0,0,1,1.294,4.1c-.863,6.849-11,7.748-16.179,6.831a20.887,20.887,0,0,1-9.276-4.152A18.224,18.224,0,0,1,125.08,411.754Z" transform="translate(-49.747 -285.039)" fill="#fff" opacity="0.85"/>
              <path id="Path_13021" data-name="Path 13021" d="M132.245,403.524c-2.247,0-7.19,0-6.8,3.4.378,3.038,5.015,5.5,7.712,5.932,3.4.557,4.818-3.739,3.829-6.453A4.854,4.854,0,0,0,132.245,403.524Z" transform="translate(-48.067 -283.623)" fill="#fff"/>
              <path id="Path_13022" data-name="Path 13022" d="M136.978,406.81c-1.8,0-4.35.611-4.458,2.822,0,1.8,2.7,1.8,3.973,1.366C139.441,410.046,139.243,406.756,136.978,406.81Z" transform="translate(-42.41 -280.995)" fill="#fff"/>
              <path id="Path_13023" data-name="Path 13023" d="M138.139,404.779a1.8,1.8,0,0,1,1.2.881c.449.773.378,1.905-.611,2.157a7.352,7.352,0,0,1-4.009-1.672c-.827-1.384,2.175-1.546,2.858-1.456Z" transform="translate(-40.766 -282.702)" fill="#fff"/>
              <path id="Path_13024" data-name="Path 13024" d="M174.912,401.417a3.722,3.722,0,0,1-1.276.341,4.134,4.134,0,0,1-3.182-1.222,10.642,10.642,0,0,1-2.031-2.84c-2.625-4.746-8.844-17.563,0-19.648,2.822-.683,5.878,2.013,7.46,4.153a16.179,16.179,0,0,1,3,10.894C178.507,395.772,177.555,400.177,174.912,401.417Z" transform="translate(-17.427 -304.022)" fill="#fff" opacity="0.85"/>
              <path id="Path_13025" data-name="Path 13025" d="M170.835,379.73a5.159,5.159,0,0,0-4.872-.126c-3.038,2.463,3.2,7.191,5.159,8.143,3.146,1.492,4.566-.719,3.2-3.6a8.683,8.683,0,0,0-3.433-4.35Z" transform="translate(-16.388 -303.133)" fill="#fff"/>
              <path id="Path_13026" data-name="Path 13026" d="M171.852,386.143c-.575-.4-1.33,0-2.049,1.654-.5,1.151-1.2,4.117.935,3.937C173.506,391.5,173.129,387.006,171.852,386.143Z" transform="translate(-13.091 -297.592)" fill="#fff"/>
              <path id="Path_13027" data-name="Path 13027" d="M166.3,386.477a3.128,3.128,0,0,0,2.265,2.535c2.7.306.809-6.418-1.672-4.4A1.924,1.924,0,0,0,166.3,386.477Z" transform="translate(-15.504 -299.004)" fill="#fff"/>
              <path id="Path_13028" data-name="Path 13028" d="M131.946,407.08A32.573,32.573,0,0,0,110.86,417.2a74.619,74.619,0,0,1,21.086-10.121Z" transform="translate(-59.686 -280.779)" opacity="0.15"/>
              <path id="Path_13029" data-name="Path 13029" d="M143,363.2a172,172,0,0,1,32.735,43.143Z" transform="translate(-34.051 -315.779)" opacity="0.15"/>
              <path id="Path_13030" data-name="Path 13030" d="M172.038,408.321s-28.906-14.938-71.348-20.511Z" transform="translate(-67.798 -296.149)" opacity="0.15"/>
              <path id="Path_13031" data-name="Path 13031" d="M217.077,392.77c-2.265,6.489-10.228,16.358-22.039,23.369s-27.144,16.5-44.545,17.059-29.373-12.332-29.373-12.332,8.988,14.273,29.373,14.723,33-8.593,45.138-15.945C208.251,411.933,215.657,401.039,217.077,392.77Z" transform="translate(-51.503 -292.193)" opacity="0.15"/>
              <path id="Path_13032" data-name="Path 13032" d="M121.276,419.522c-4.135-10.516-11.972-18.749-18.516-21.032,7.083.557,16.484,7.838,20.133,20.026C122.965,418.516,121.833,419.181,121.276,419.522Z" transform="translate(-66.147 -287.631)" fill="#fff" opacity="0.2"/>
              <path id="Path_13033" data-name="Path 13033" d="M114.976,411a39.727,39.727,0,0,1,.593,13.051,38.721,38.721,0,0,0-2.049-12.314Z" transform="translate(-57.565 -277.652)" fill="#fff" opacity="0.2"/>
              <path id="Path_13034" data-name="Path 13034" d="M144.647,412.561c-4.854,2.373-5.393,5.573-8.988,2.7s-30.092-21.787-36.4-24.466c-7.029-3.02-.629-3.416,15.334,1.546s43.664,12.44,44.833,14.075S154.013,407.959,144.647,412.561Z" transform="translate(-71.201 -295.554)" fill="#fff" opacity="0.2"/>
              <path id="Path_13035" data-name="Path 13035" d="M82.55,381.221l20.583,44.707c4.045,7.011,46.99-14.741,72.642-32.825,12.35-8.7,20.709-16.574,18.749-19.954a254.906,254.906,0,0,0-34.964-36.33c-1.33,1.348-2.7,2.678-4.117,3.955A130.806,130.806,0,0,1,144.8,349.6C128.192,361.933,107.088,372.305,82.55,381.221Zm5.393,5.033a3.6,3.6,0,0,1,1.941-4.746c23.207-8.9,41.759-18.623,56.517-29.643a132.426,132.426,0,0,0,10.786-8.988h0a3.6,3.6,0,0,1,4.728,0,248.915,248.915,0,0,1,29.859,31.638c-.252.9-2.229,5.393-17.8,16.34-24.106,16.988-57.524,33.652-67.537,33.652a4.153,4.153,0,0,1-1.115-.108Z" transform="translate(-82.267 -336.82)" fill="#37474f"/>
              <path id="Path_13036" data-name="Path 13036" d="M103.122,422.065a4.152,4.152,0,0,0,1.115.108c9.977,0,43.431-16.664,67.537-33.651,15.567-10.983,17.545-15.442,17.8-16.34a248.918,248.918,0,0,0-29.859-31.638,3.6,3.6,0,0,0-4.728,0h0a132.456,132.456,0,0,1-10.786,8.988c-14.758,11.019-33.31,20.745-56.517,29.643a3.6,3.6,0,0,0-1.941,4.746Z" transform="translate(-79.956 -334.557)" fill="#263238"/>
              <path id="Path_13037" data-name="Path 13037" d="M150.675,386.358c-3.9,2.75-8.017,5.393-12.242,8.125-8.7-14.111-21.571-32.932-26.533-39.458,3.919-2.463,7.622-4.979,11.109-7.586,2.229-1.672,4.368-3.362,6.382-5.069,12.853,11.954,24.663,29.858,29.571,37.75C156.751,381.936,154.018,384,150.675,386.358Z" transform="translate(-58.857 -332.393)" fill="#fff" opacity="0.2"/>
              <path id="Path_13038" data-name="Path 13038" d="M107.5,353.2q2.373-1.312,4.638-2.7a420.639,420.639,0,0,1,26.371,39.548c-1.8,1.043-3.416,2.067-5.141,3.074C127.759,383.972,118,368.368,107.5,353.2Z" transform="translate(-62.366 -325.909)" fill="#fff" opacity="0.2"/>
              <path id="Path_13039" data-name="Path 13039" d="M129.138,407.937c-12.17,5.824-24.861,9.815-25.886,7.1s-9.9-20.493-12.458-27.54-3.128-7.82-1.456-9.941,10.894-5.573,25.868-12.583S144.148,345.2,144.148,345.2c-14.758,11.019-33.31,20.745-56.517,29.643a3.6,3.6,0,0,0-1.941,4.746l17.473,38.074a4.153,4.153,0,0,0,1.115.108c9.977,0,43.431-16.664,67.537-33.651C166.852,387.714,141.308,402.113,129.138,407.937Z" transform="translate(-79.996 -330.136)" fill="#fff" opacity="0.3"/>
              <path id="Path_13040" data-name="Path 13040" d="M82.621,387.03c1.366,6.6,8.683,8,14.147,7.82a16.592,16.592,0,0,0,6-1.025c2.121-1.222,1.15-3.757,0-5.213-1.923-2.481-10.516-7.46-15.909-7.64C83.718,380.864,81.687,382.41,82.621,387.03Z" transform="translate(-82.392 -301.607)" fill="#fe0030"/>
              <path id="Path_13041" data-name="Path 13041" d="M82.621,387.03c1.366,6.6,8.683,8,14.147,7.82a16.592,16.592,0,0,0,6-1.025c2.121-1.222,1.15-3.757,0-5.213-1.923-2.481-10.516-7.46-15.909-7.64C83.718,380.864,81.687,382.41,82.621,387.03Z" transform="translate(-82.392 -301.607)" opacity="0.3"/>
              <path id="Path_13042" data-name="Path 13042" d="M82.621,387.03c1.366,6.6,8.683,8,14.147,7.82a16.592,16.592,0,0,0,6-1.025c2.121-1.222,1.15-3.757,0-5.213,1.061,2.013-4.566,3.254-9.6,1.456s-8.754-5.68-6.31-9.1C83.718,380.864,81.687,382.41,82.621,387.03Z" transform="translate(-82.392 -301.607)" fill="#fe0030"/>
              <path id="Path_13043" data-name="Path 13043" d="M82.621,387.03c1.366,6.6,8.683,8,14.147,7.82a16.592,16.592,0,0,0,6-1.025c2.121-1.222,1.15-3.757,0-5.213,1.061,2.013-4.566,3.254-9.6,1.456s-8.754-5.68-6.31-9.1C83.718,380.864,81.687,382.41,82.621,387.03Z" transform="translate(-82.392 -301.607)" opacity="0.35"/>
              <path id="Path_13044" data-name="Path 13044" d="M82.622,387.009c1.366,6.6,8.683,8,14.147,7.82A13.1,13.1,0,0,1,85.282,388.2c-1.636-3.416-.4-6.741,1.528-7.191C83.718,380.843,81.687,382.389,82.622,387.009Z" transform="translate(-82.393 -301.586)" fill="#37474f"/>
            </g>
          </g>
        </g>
      </g>
    </g>
    <text id="" transform="translate(5396.035 1993.292) rotate(-31)" fill="#fff" font-size="22" font-family="Kanit-Regular, Kanit"><tspan x="0" y="0"></tspan></text>
  </g>
</svg>
